<svg width="1450" height="1076" viewBox="0 0 1440 1076" fill="none" xmlns="http://www.w3.org/2000/svg">
<path d="M679.5 774.25L696.763 718.354C708.68 679.767 749.621 658.147 788.208 670.065L770.945 725.961C759.028 764.548 718.087 786.167 679.5 774.25Z" fill="#AEDCC0"/>
<path d="M567.75 562.593L585.013 618.489C596.93 657.076 637.871 678.696 676.458 666.778L659.195 610.882C647.278 572.295 606.337 550.675 567.75 562.593Z" fill="#AEDCC0"/>
<path d="M679.5 558.506L696.763 502.61C708.68 464.023 749.621 442.403 788.208 454.32L770.945 510.217C759.028 548.803 718.087 570.423 679.5 558.506Z" fill="#AEDCC0"/>
<path d="M567.75 130.831L585.013 186.727C596.93 225.314 637.871 246.934 676.458 235.016L659.195 179.12C647.278 140.534 606.337 118.914 567.75 130.831Z" fill="#AEDCC0"/>
<path d="M678.75 125.764L696.013 69.8675C707.93 31.2807 748.871 9.66089 787.458 21.5783L770.195 77.4744C758.278 116.061 717.337 137.681 678.75 125.764Z" fill="#AEDCC0"/>
<path d="M678.75 342.512L696.013 286.616C707.93 248.029 748.871 226.409 787.458 238.326L770.195 294.222C758.278 332.809 717.337 354.429 678.75 342.512Z" fill="#AEDCC0"/>
<path d="M567.75 346.837L585.013 402.733C596.93 441.32 637.871 462.94 676.458 451.022L659.195 395.126C647.278 356.539 606.337 334.92 567.75 346.837Z" fill="#AEDCC0"/>
<rect x="670" y="52" width="13" height="898" rx="6.5" fill="#343E3D"/>
<path d="M1319 960.5C1319 929.868 1255.94 900.49 1143.7 878.829C1031.46 857.169 879.232 845 720.5 845C561.768 845 409.537 857.169 297.297 878.829C185.056 900.49 122 929.867 122 960.5L720.5 960.5H1319Z" fill="#343E3D"/>
<rect y="959" width="1450" height="117" fill="#AEDCC0"/>
</svg>
