<svg width="171" height="163" viewBox="0 0 171 163" fill="none" xmlns="http://www.w3.org/2000/svg">
	<path d="M170.76 28.4557C168.829 21.7792 164.363 16.2089 161.872 13.4819C156.124 7.1889 151.258 4.68348 148.189 3.68951C147.604 3.50057 146.998 3.40486 146.386 3.40486C144.9 3.40486 143.476 3.96558 142.377 4.98337L130.545 15.9408C126.768 19.4383 122.385 22.0399 117.517 23.6742C111.86 25.5729 106.767 28.5962 102.379 32.6598L85.8199 47.9944C85.5122 47.479 85.1478 47.0073 84.7366 46.5754L84.4941 43.6674C84.3454 41.889 83.27 40.389 81.7851 39.5915C83.0116 39.451 84.2607 39.2756 85.5451 39.0406C89.9388 38.2357 92.9043 34.1096 92.2962 29.6465C91.9239 26.9135 89.6658 24.8871 86.9263 24.8288C77.8933 24.6362 67.1118 19.9358 67.0042 19.8885C61.7032 17.4156 48.6808 15.2175 43.3306 14.3886C42.8828 14.3193 42.4672 14.1181 42.1303 13.8071L28.8717 1.57364C27.7719 0.558956 26.3467 0 24.8583 0C24.1283 0 23.4136 0.134352 22.733 0.398766C16.2902 2.90544 11.1586 7.86053 8.67257 10.591C2.93474 16.8945 0.870309 21.9888 0.14842 25.1532C-0.325628 27.2328 0.354364 29.4248 1.92397 30.8726L13.7756 41.8091C17.5581 45.2999 20.5065 49.475 22.5387 54.2197C24.8998 59.7318 28.3253 64.5837 32.7208 68.64L49.96 84.5476C49.2038 84.3507 48.4282 84.2194 47.627 84.2194C46.9031 84.2194 46.1921 84.3071 45.5023 84.4685C45.4414 84.4194 45.3799 84.3617 45.3195 84.3139C44.5098 83.6808 43.5477 83.3464 42.5368 83.3464C41.2134 83.3464 39.9551 83.9261 39.0838 84.9365C38.2253 85.9328 37.8396 87.2598 38.0254 88.5776C38.2247 89.9898 38.6774 91.4799 39.3501 93.0314C39.5152 93.589 39.7754 94.1221 40.1105 94.624C40.7813 95.9123 41.6033 97.2411 42.5764 98.6073C45.6334 104.323 48.1119 111.825 48.1425 111.919C50.1185 118.172 58.1235 130.587 61.473 135.632C61.791 136.111 61.9592 136.671 61.9592 137.254V153.672C61.9592 155.905 63.1931 157.925 65.1799 158.942C72.3289 162.604 80.8781 163 84.2208 163C94.4358 163 100.209 160.439 102.742 158.913C104.471 157.871 105.544 155.945 105.544 153.885V139.626C105.544 133.811 106.744 128.173 109.108 122.867C111.812 116.799 113.184 110.349 113.184 103.698V91.4686L127.123 78.5605C126.77 82.0873 126.92 85.5486 127.168 88.1724C127.576 92.4961 131.14 95.7568 135.459 95.7568C135.601 95.7568 135.745 95.7531 135.889 95.7458C138.625 95.6053 140.822 93.512 141.113 90.7692C142.074 81.724 147.644 71.3091 147.7 71.2055C150.599 66.0988 153.884 53.2216 155.16 47.9243C155.267 47.4808 155.502 47.0814 155.839 46.7692L169.075 34.5125C170.748 32.9659 171.394 30.6445 170.761 28.4563L170.76 28.4557ZM167.095 32.3463L160.443 38.5063C159.229 35.5468 157.839 32.8757 156.355 30.4661L164.935 22.5203C166.2 24.6643 167.279 26.9502 167.952 29.2796C168.271 30.3808 167.934 31.5697 167.095 32.3463ZM135.739 92.8058C135.645 92.8107 135.551 92.8132 135.458 92.8132C132.688 92.8132 130.343 90.7017 130.079 87.895C129.727 84.1619 129.605 79.0021 130.796 74.4795C131.043 73.5433 130.318 72.7845 129.528 72.7845C129.231 72.7845 128.923 72.8924 128.657 73.1403C124.557 76.9365 118.559 82.4915 113.183 87.4692C112.689 87.9269 112.203 88.3771 111.721 88.8231C111.225 89.2832 110.738 89.7342 110.259 90.1777C107.929 92.3346 105.825 94.2831 104.212 95.7768C103.35 96.5762 102.261 96.9701 101.176 96.9701C99.9606 96.9701 98.7492 96.4762 97.8609 95.5033L97.7713 95.4051C96.089 93.5634 96.2079 90.6972 98.0376 89.0034L98.2088 88.8445L100.215 86.9869L110.26 77.6849L111.723 76.3303L113.184 74.9764L116.584 71.8286C117.126 71.3262 117.161 70.4765 116.662 69.9305C116.399 69.6428 116.04 69.4968 115.68 69.4968C115.356 69.4968 115.032 69.6146 114.776 69.8526L113.184 71.3305L111.723 72.6881L110.26 74.0469L100.215 83.3766L98.6828 84.7993L98.6712 84.8103L92.6975 90.3586C91.8323 91.1623 90.7381 91.5592 89.6473 91.5592C88.4323 91.5592 87.2216 91.0672 86.3339 90.0954L86.1883 89.9359C85.5199 89.2047 85.1482 88.3108 85.0422 87.3936C84.9148 86.29 85.1793 85.1525 85.8489 84.2188C86.0238 83.9753 86.2254 83.7452 86.4539 83.5336L86.9657 83.0594L87.1272 82.9097L88.9971 81.1785L93.5414 76.9707L94.9337 75.6811L97.2095 73.5738L98.6712 72.2205L98.7388 72.1579L100.215 70.7911L107.177 64.3447L108.31 63.295L108.678 62.9539C108.95 62.703 109.088 62.3638 109.097 62.0202C109.106 61.6902 108.995 61.3558 108.756 61.0939C108.498 60.8117 108.146 60.6687 107.793 60.6687C107.477 60.6687 107.159 60.7835 106.908 61.016L106.755 61.1577L105.318 62.4883L103.321 64.3379L100.818 66.6556L98.8021 68.5219L98.6717 68.6427L97.5299 69.6997L97.21 69.996L96.2777 70.8598L93.9929 72.9758L92.8803 74.0064L91.7555 75.0475L88.0753 78.4559C87.7383 78.7682 87.3599 79.0001 86.9675 79.1897C86.3534 79.486 85.6947 79.6516 85.0305 79.6516C84.7003 79.6516 84.3719 79.608 84.0483 79.5357C83.8265 79.486 83.6096 79.4136 83.3964 79.3301C82.7767 79.0872 82.1979 78.7142 81.717 78.1885L81.5964 78.0566C81.3137 77.7467 81.1004 77.402 80.9188 77.0449C80.0213 75.2781 80.34 73.064 81.8621 71.655L84.0477 69.6311L85.2755 68.4943L86.9669 66.9281L87.2216 66.6925L93.9679 60.4455L96.1286 58.4444L97.2107 57.442L98.564 56.1886L99.8137 55.031L101.621 53.3569C102.169 52.8501 102.205 51.9925 101.701 51.4416C101.436 51.1508 101.074 51.0036 100.71 51.0036C100.384 51.0036 100.057 51.122 99.7991 51.3613L97.4769 53.5114L96.3942 54.5139L94.136 56.6051L93.0563 57.6057L91.976 58.6063L87.7322 62.5362C87.494 62.757 87.2356 62.9398 86.9675 63.0993C86.2632 63.5177 85.4759 63.7324 84.6869 63.7324C84.4724 63.7324 84.2604 63.6981 84.0483 63.6674C84.0093 63.6619 83.9697 63.6625 83.9314 63.6557C82.9821 63.4938 82.0759 63.0374 81.3735 62.2687C80.8605 61.7067 80.5351 61.0454 80.3542 60.3552C79.9435 58.7828 80.3682 57.0442 81.6392 55.867L84.0484 53.6364L85.3163 52.4622L85.5113 52.2819L86.3966 51.4616L86.8908 51.004L87.4769 50.461L104.359 34.8272C108.415 31.0715 113.214 28.2224 118.442 26.4674C123.67 24.7128 128.469 21.864 132.525 18.1076L136.117 14.7813C139.35 16.5414 151.76 24.1878 158.137 40.6412L153.859 44.6018C153.097 45.3073 152.563 46.2165 152.319 47.2299C151.234 51.7328 147.924 64.8776 145.13 69.7996C145.13 69.7996 139.239 80.7268 138.206 90.4564C138.067 91.7465 137.025 92.7391 135.739 92.8054L135.739 92.8058ZM110.258 103.699C110.258 109.891 108.956 116.013 106.438 121.662C103.92 127.312 102.618 133.434 102.618 139.627V142.32C101.72 142.772 97.3655 144.8 90.3353 145.58C89.5511 142.826 87.059 140.798 84.0717 140.798C81.1323 140.798 78.6749 142.762 77.8487 145.448C73.9016 144.955 69.5602 143.996 64.882 142.379V137.255C64.882 136.093 64.5444 134.963 63.9029 133.997C61.0495 129.699 52.8239 117.028 50.9179 110.997C50.9179 110.997 49.1845 105.719 46.7533 100.463C49.9266 99.186 51.8355 97.6775 52.4192 95.9757C52.7745 94.9402 52.6709 93.8556 52.128 92.923C50.8082 90.6555 49.5012 88.7557 48.2162 87.2122C49.3879 87.322 50.5444 87.7373 51.5418 88.5158C53.7025 90.2016 56.1207 92.5016 57.9463 95.3775C58.2479 95.8523 58.7116 96.0658 59.1704 96.0658C59.9125 96.0658 60.6395 95.5076 60.6395 94.5959L60.6401 91.5881V57.5381C60.6401 57.4988 60.6504 57.462 60.6516 57.4227C60.8631 57.8356 61.1098 58.2313 61.4297 58.5755C62.3882 59.6086 63.7426 60.2012 65.1471 60.2012H66.0367C67.4558 60.2012 68.8207 59.5982 69.7809 58.5461C70.2184 58.067 70.5425 57.505 70.7698 56.9074C70.796 57.116 70.8326 57.3215 70.8326 57.5375V85.852C70.8326 86.6802 71.4992 87.3514 72.3217 87.3514C72.3857 87.3514 72.4406 87.3225 72.5027 87.3146C73.0529 87.244 73.5099 86.8931 73.7036 86.3894C73.7682 86.2213 73.8115 86.0416 73.8109 85.8502L73.7932 74.0425L73.7877 70.466L73.7694 57.9094L73.764 54.2751L73.7609 52.0961C73.7603 51.5955 73.8541 51.1212 73.9882 50.6648C74.1308 51.704 74.589 52.6875 75.3085 53.4634C76.1549 54.3757 77.3143 54.918 78.5404 55.0382C77.9999 55.848 77.6301 56.7375 77.4369 57.6645C77.1761 58.9197 77.2413 60.2263 77.6288 61.4601C77.9457 62.4705 78.4612 63.4319 79.2191 64.2619C80.2586 65.3999 81.6222 66.1777 83.1023 66.5041L79.8809 69.4874C78.5606 70.7095 77.8148 72.3101 77.5888 73.9731C77.3986 75.3694 77.5991 76.7975 78.1968 78.106C78.5118 78.7962 78.9043 79.4612 79.4417 80.0501L79.5629 80.1826C79.8438 80.49 80.1515 80.7667 80.4757 81.02C80.9893 81.4212 81.5554 81.7409 82.1512 81.9936C82.5924 82.1807 83.0451 82.3408 83.5155 82.4396C82.6442 83.6273 82.1433 85.0487 82.0806 86.5567C82.0751 86.6898 82.1013 86.818 82.1025 86.9499C82.1214 88.7995 82.7813 90.5578 84.0347 91.9295L84.1797 92.0884C85.5823 93.6239 87.5748 94.5043 89.6464 94.5043C91.1069 94.5043 92.5168 94.0755 93.7196 93.2792C93.9054 94.7669 94.5349 96.2129 95.6176 97.3981L95.7084 97.4975C97.111 99.033 99.1041 99.914 101.175 99.914C103.038 99.914 104.819 99.2141 106.192 97.9435L110.258 94.1779L110.258 103.699ZM102.618 153.886C102.618 154.905 102.106 155.863 101.238 156.387C98.9738 157.752 93.7406 160.056 84.2188 160.056C78.7636 160.056 71.9248 159.095 66.5038 156.319C65.5125 155.811 64.8819 154.792 64.8819 153.672V145.475C69.4681 146.993 73.7375 147.931 77.6304 148.421C78.1257 151.565 80.8085 153.976 84.0714 153.976C87.2793 153.976 89.9367 151.648 90.4965 148.581C96.3416 147.953 100.498 146.484 102.618 145.567L102.618 153.886ZM44.8312 87.8241C46.132 89.1461 47.7357 91.1994 49.605 94.4115C50.4349 95.8366 45.5799 97.7653 45.5799 97.7653C45.3819 97.5021 45.2168 97.2574 45.0346 97.0028C44.0329 95.6047 43.2468 94.328 42.6583 93.1863C42.4725 92.8256 42.2994 92.474 42.1477 92.1391C41.642 91.0195 41.3258 90.0495 41.1271 89.2128C41.0382 88.8379 40.9644 88.4809 40.9194 88.1625C40.7689 87.095 41.6164 86.2902 42.5352 86.2902C42.8709 86.2902 43.2158 86.3975 43.5247 86.6392C43.5728 86.6773 43.6271 86.7263 43.677 86.7668C44.0298 87.0539 44.4137 87.3999 44.8311 87.8239L44.8312 87.8241ZM15.7497 39.638L11.0111 35.2657C12.8525 31.1492 19.4537 18.7158 34.7112 10.9575L40.1504 15.977C40.9139 16.6812 41.8589 17.1401 42.8826 17.2984C47.4311 18.0033 60.7208 20.2032 65.8308 22.5866C65.8308 22.5866 77.1463 27.5655 86.862 27.7728C88.1495 27.8004 89.2213 28.7618 89.3961 30.0465C89.7891 32.9335 87.8655 35.6217 85.0189 36.1431C82.6463 36.5781 79.6729 36.967 76.6288 36.967C74.9721 36.967 73.2952 36.8517 71.6818 36.5664C71.5952 36.5511 71.5105 36.5437 71.4283 36.5437C70.2761 36.5437 69.6265 37.986 70.5387 38.8271C71.7439 39.9393 73.1185 41.2073 74.5882 42.5638C74.4688 42.9429 74.3773 43.3343 74.3493 43.7466L74.2269 45.5495C73.8521 45.8151 73.4896 46.1016 73.1588 46.4347C71.8298 47.7752 71.0304 49.5058 70.8666 51.3696C70.8544 51.3591 70.8398 51.3524 70.8276 51.342L70.6137 48.7789C70.3937 46.1477 68.1673 44.087 65.5455 44.087C62.8816 44.087 60.6528 46.1827 60.4712 48.8587L60.2805 51.6678C58.7079 53.131 57.7154 55.2175 57.7154 57.5382V71.742L53.2663 67.6365C53.0079 67.3979 52.6819 67.2801 52.3572 67.2801C51.9928 67.2801 51.6297 67.4279 51.364 67.72C50.8619 68.2721 50.8985 69.1291 51.4469 69.6352L57.7155 75.4197V87.6689C57.629 87.6002 57.5358 87.545 57.4529 87.4689L34.6966 66.4682C30.6343 62.7193 27.4056 58.1477 25.2237 53.0527C23.0418 47.9578 19.813 43.3861 15.7509 39.6372L15.7497 39.638ZM81.6775 45.1119L81.7677 46.1953L81.8578 47.2763L81.9151 47.9658L82.0382 49.4394L82.0668 49.7854C82.1728 51.0547 81.1785 52.1443 79.9128 52.1443H79.0233C77.7711 52.1443 76.7816 51.0768 76.867 49.8192L77.0339 47.3646L77.1405 45.7966L77.1966 44.9727L77.2466 44.2389L77.2667 43.9482C77.2843 43.6868 77.358 43.4445 77.4586 43.2175C77.6645 42.7506 78.0301 42.3875 78.4816 42.1636C78.7698 42.0206 79.0812 41.92 79.423 41.92C80.5466 41.92 81.4825 42.7868 81.577 43.9138L81.6306 44.5518L81.6775 45.1119ZM68.1892 54.8976C68.2952 56.1668 67.3008 57.2558 66.0352 57.2558H65.1456C63.8935 57.2558 62.904 56.1884 62.9893 54.9313L63.1063 53.2063L63.2227 51.4971L63.3317 49.8886L63.3878 49.0598C63.4652 47.9181 64.4078 47.0323 65.5441 47.0323C66.6676 47.0323 67.6035 47.8991 67.6981 49.0261L67.7639 49.8113L67.8955 51.386L68.032 53.0247L68.1892 54.8976ZM76.2644 40.1165L76.0377 39.9073C76.1998 39.9098 76.3637 39.911 76.5276 39.911C76.4356 39.9754 76.3509 40.0472 76.2644 40.1165V40.1165ZM146.385 6.34916C146.688 6.34916 146.994 6.39639 147.293 6.49271C148.98 7.03871 151.774 8.30491 155.244 11.1803L146.855 18.9488C143.4 15.7833 140.279 13.7569 138.393 12.6729L144.357 7.15044C144.919 6.62898 145.644 6.34923 146.385 6.34923L146.385 6.34916ZM159.719 15.4746C160.933 16.8033 162.174 18.3352 163.333 20.002L154.725 27.9735C152.855 25.2779 150.889 22.9596 148.966 20.9928L157.442 13.1439C158.18 13.8507 158.938 14.6199 159.719 15.4746Z" fill="#AEDCC0" />
	<path d="M101.448 88.7739C100.666 88.5862 99.8986 89.0666 99.703 89.8457C99.5062 90.6248 99.9771 91.4229 100.749 91.6327C100.867 91.6653 101.901 91.9763 102.064 93.0554C102.174 93.7842 102.796 94.3063 103.508 94.3063C103.581 94.3063 103.655 94.3014 103.729 94.2897C104.527 94.1676 105.076 93.4167 104.955 92.6124C104.584 90.1585 102.576 89.045 101.448 88.7739V88.7739Z" fill="#AEDCC0" />
	<path d="M89.4169 84.1174C89.2335 84.0462 89.058 83.988 88.9014 83.9505C88.3646 83.8236 87.8375 84.0272 87.4896 84.4131C87.3306 84.5898 87.1978 84.7922 87.1393 85.0413C86.9522 85.8321 87.4366 86.6266 88.222 86.8149C88.2336 86.8179 89.3505 87.1155 89.5186 88.2326C89.6283 88.9614 90.251 89.4835 90.9627 89.4835C91.0358 89.4835 91.1095 89.4786 91.1839 89.4669C91.9821 89.3448 92.5304 88.5939 92.4092 87.7896C92.0899 85.6749 90.5575 84.5604 89.4168 84.1173L89.4169 84.1174Z" fill="#AEDCC0" />
	<path d="M84.196 72.0937C84.1454 72.0814 84.0973 72.0949 84.0467 72.0888C83.318 71.9937 82.61 72.444 82.4332 73.1845C82.2462 73.9752 82.7305 74.7697 83.516 74.958C83.5214 74.9592 83.7688 75.0298 84.0467 75.2126C84.3647 75.4218 84.7224 75.7795 84.8126 76.3758C84.9222 77.1046 85.545 77.6266 86.2566 77.6266C86.3297 77.6266 86.4035 77.6217 86.4778 77.6101C86.6563 77.5825 86.8166 77.5144 86.9659 77.4309C87.4826 77.1401 87.7976 76.5573 87.7031 75.9328C87.5898 75.1819 87.3132 74.5703 86.9659 74.0562C86.1768 72.89 84.9789 72.282 84.1959 72.0937L84.196 72.0937Z" fill="#AEDCC0" />
	<path d="M85.5939 56.3836C85.5652 56.3665 85.5372 56.3499 85.5092 56.3333C85.0729 56.08 84.6464 55.9076 84.3027 55.8254C84.2162 55.8051 84.1328 55.8217 84.0468 55.8174C83.3577 55.7812 82.7082 56.2119 82.5406 56.9161C82.3536 57.7069 82.838 58.5014 83.6234 58.6897C83.6282 58.6909 83.8159 58.7449 84.0468 58.8774C84.3856 59.0725 84.8194 59.4424 84.92 60.1068C85.0297 60.8356 85.6524 61.3577 86.364 61.3577C86.4372 61.3577 86.5109 61.3528 86.5852 61.3411C86.7248 61.3197 86.8442 61.2577 86.966 61.2013C87.5424 60.9338 87.9111 60.3283 87.8105 59.6639C87.6862 58.8363 87.367 58.1731 86.966 57.6315C86.5633 57.088 86.0795 56.6782 85.5939 56.3837V56.3836Z" fill="#AEDCC0" />
</svg>