<svg width="66" height="66" viewBox="0 0 66 66" fill="none" xmlns="http://www.w3.org/2000/svg">
<circle cx="33" cy="33" r="33" fill="#AEDCC0"/>
<path d="M29.1116 15.0016C28.4503 14.9716 27.8025 15.3686 27.5046 16.0713L26.7674 17.8119C26.3994 18.6799 26.6927 19.7079 27.4101 20.2028L24.2717 27.6062C23.4669 27.3132 22.5609 27.7228 22.1921 28.5922L21.4549 30.3328C21.0573 31.2696 21.4219 32.3918 22.2676 32.8285L30.1324 36.8973C30.9785 37.3341 32.0035 36.9324 32.401 35.9956L33.1382 34.255C33.51 33.3782 33.21 32.3318 32.4765 31.8431L33.3653 29.7457C36.9193 32.1385 42.0221 35.2513 46.4661 37.8832C48.7762 39.2512 50.8916 40.4829 52.4969 41.4066C54.1025 42.3307 55.1702 42.9323 55.4652 43.0845C57.0511 43.9037 58.9556 43.1416 59.6999 41.3855C60.4447 39.6299 59.7543 37.5274 58.1685 36.7086C57.8739 36.5564 56.7771 36.0298 55.1056 35.2615C53.434 34.4928 51.2228 33.49 48.7913 32.409C44.1165 30.3308 38.6862 27.9942 34.7451 26.5153L35.6339 24.439C36.4411 24.7386 37.3433 24.3468 37.7135 23.4741L38.4507 21.7125C38.8482 20.7757 38.4836 19.6745 37.6379 19.2378L29.7732 15.169C29.5618 15.06 29.3318 15.0113 29.1115 15.0014L29.1116 15.0016ZM29.0736 16.0503C29.1689 16.0564 29.2635 16.0858 29.3572 16.1341L37.2219 20.2028C37.5971 20.3967 37.7574 20.8573 37.581 21.2726L36.8438 23.0132C36.6678 23.4284 36.2357 23.6054 35.8605 23.4116L35.728 23.3488H35.7285C35.69 23.3058 35.6453 23.2702 35.5964 23.244L28.2613 19.4687L27.9967 19.3428C27.6215 19.1489 27.4612 18.6672 27.6376 18.2519L28.3748 16.5114C28.5069 16.2 28.7888 16.031 29.0745 16.0498L29.0736 16.0503ZM28.2984 20.6856L34.7452 24.0203L33.6489 26.5998L32.7226 28.7598C32.707 28.7935 32.6944 28.8286 32.6851 28.8647L31.6263 31.3604L28.3934 29.7036L25.1604 28.0257L28.2988 20.685L28.2984 20.6856ZM34.3291 27.502C38.2397 28.9627 43.71 31.317 48.4325 33.4168C50.8603 34.4959 53.0601 35.5024 54.7277 36.2694C56.3959 37.0362 57.5458 37.568 57.7526 37.6748C58.8646 38.2493 59.352 39.6954 58.8304 40.9257C58.3088 42.1561 56.993 42.6748 55.881 42.1004C55.6743 41.9936 54.553 41.3864 52.9507 40.4647C51.3484 39.5428 49.2261 38.3069 46.92 36.9413C42.4359 34.2859 37.3209 31.1394 33.7997 28.7616L34.3289 27.5032L34.3291 27.502ZM23.7611 28.5718C23.8569 28.5764 23.951 28.6073 24.0447 28.6556L24.1957 28.7183H24.1962C24.2088 28.7258 24.2215 28.7328 24.2341 28.7389L27.9772 30.6892L31.6447 32.5768L31.6451 32.5773C31.6751 32.5946 31.7067 32.6087 31.7397 32.619L31.9097 32.7028C32.2849 32.8966 32.4452 33.3779 32.2688 33.7936L31.5316 35.5342C31.3556 35.9494 30.9425 36.1053 30.5674 35.9115L22.6836 31.8427C22.3084 31.6489 22.1481 31.2093 22.3245 30.794L23.0617 29.0324C23.1938 28.721 23.4736 28.5577 23.7614 28.5708L23.7611 28.5718ZM17.0877 42.1207C15.7099 42.1207 14.5735 43.3632 14.5735 44.8895V46.2106H13.4957C12.1213 46.2106 11 47.4545 11 48.9794V49.2312C11 50.7561 12.1213 52 13.4957 52H41.8916C43.2661 52 44.3873 50.7561 44.3873 49.2312V48.9794C44.3873 47.4545 43.2661 46.2106 41.8916 46.2106H40.8138V44.8895C40.8138 43.3638 39.6773 42.1207 38.2996 42.1207H17.0877ZM17.0877 43.2116H38.2995C39.1604 43.2116 39.831 43.9424 39.831 44.8894V46.2106H15.5565V44.8894C15.5565 43.9424 16.227 43.2116 17.0879 43.2116H17.0877ZM13.4957 47.2803H41.8915C42.7465 47.2803 43.423 48.0308 43.423 48.9793V49.2312C43.423 50.1797 42.7465 50.9302 41.8915 50.9302H13.4957C12.6407 50.9302 11.9642 50.1797 11.9642 49.2312V48.9793C11.9642 48.0308 12.6407 47.2803 13.4957 47.2803Z" fill="#343E3D"/>
</svg>
