<?xml version="1.0" encoding="UTF-8"?>
<svg width="700pt" height="700pt" version="1.1" viewBox="0 0 700 700" xmlns="http://www.w3.org/2000/svg">
 <path d="m334.03 96.113c-1.1094 0.003907-2.2031 0.21875-3.2305 0.63281l-229.11 93.465c-3.3047 1.3398-5.4648 4.5469-5.4648 8.1094s2.1602 6.7695 5.4648 8.1094l66.734 27.223v83.875c0 12.012 5.8047 23.027 14.852 32.164 9.0469 9.1328 21.441 16.77 36.367 23.121 29.852 12.707 70.047 20.219 114.52 20.219 44.473 0 84.602-7.5078 114.45-20.219 14.926-6.3555 27.32-13.988 36.367-23.121 9.0469-9.1367 14.852-20.152 14.852-32.164v-83.875l54.652-22.301v148.1c-18.129 4.082-31.785 20.406-31.785 39.785v55.934c0.019531 4.832 3.9492 8.7344 8.7812 8.7148h63.559c4.8125-0.007813 8.7148-3.9023 8.7344-8.7148v-55.934c0-19.402-13.637-35.766-31.785-39.82v-160.36h-0.003906c0.32812-3.8164-1.8672-7.4062-5.418-8.8516l-229.11-93.465c-1.0898-0.4375-2.2578-0.65234-3.4336-0.63281zm0.13672 18.199 205.91 84.047-205.91 83.961-205.91-84.031zm-148.24 126.48 144.87 59.098v0.003906c2.1328 0.87891 4.5312 0.87891 6.6641 0l144.87-59.098v76.734c0 6.4961-2.9609 13.031-9.7578 19.895s-17.352 13.59-30.797 19.312c-26.887 11.445-65.141 18.801-107.61 18.801-42.473 0-80.797-7.3516-107.68-18.801-13.445-5.7266-24-12.453-30.797-19.316s-9.7578-13.395-9.7578-19.891zm377.34 135.13c12.863 0 22.984 10.207 22.984 23.312v47.152h-46.039v-47.152c0-13.102 10.191-23.312 23.055-23.312z" fill="#AEDCC0"/>
</svg>
