<svg width="158" height="150" viewBox="0 0 158 150" fill="none" xmlns="http://www.w3.org/2000/svg">
	<path d="M154.647 0H2.44695C1.09145 0 0 1.27379 0 2.83232V146.687C0 148.245 1.09142 149.5 2.44695 149.5H154.63C155.986 149.5 157.077 148.245 157.077 146.687L157.078 2.83232C157.095 1.27379 155.987 0 154.648 0H154.647ZM152.182 143.87H4.91133V5.6445H152.182V143.87ZM54.6179 117.764V85.5004C54.6179 83.9418 53.5265 82.6869 52.171 82.6869H39.818C38.4625 82.6869 37.371 83.9418 37.371 85.5004V117.768H33.7822C32.4267 117.768 31.3353 119.022 31.3353 120.581C31.3353 122.14 32.4267 123.394 33.7822 123.394H123.296C124.651 123.394 125.743 122.14 125.743 120.581C125.743 119.022 124.651 117.768 123.296 117.768H119.707L119.706 45.2502C119.706 43.6917 118.614 42.4368 117.259 42.4368H104.906C103.55 42.4368 102.459 43.6917 102.459 45.2502V117.784H98.0273V79.2624C98.0273 77.7039 96.9359 76.449 95.5804 76.449H83.2274C81.8719 76.449 80.7804 77.7038 80.7804 79.2624V117.764H76.3489L76.3478 62.0386C76.3478 60.4801 75.2564 59.2251 73.9009 59.2251H61.515C60.1595 59.2251 59.0681 60.48 59.0681 62.0386V117.764H54.6179ZM42.2649 117.764V88.3323H49.7065V117.783L42.2649 117.785V117.764ZM107.386 48.0628H114.845V117.764H107.386V48.0628ZM85.6742 82.0782H93.1323V117.764H85.6742V82.0782ZM63.9783 64.8512H71.4198V117.764H63.9783V64.8512ZM14.2857 17.4728C14.2857 15.9143 15.3771 14.6594 16.7327 14.6594H56.2702C57.6257 14.6594 58.7171 15.9142 58.7171 17.4728C58.7171 19.0314 57.6257 20.2863 56.2702 20.2863H16.7327C15.3761 20.2863 14.2846 19.0314 14.2846 17.4728H14.2857ZM14.2857 28.6712C14.2857 27.1127 15.3771 25.8577 16.7327 25.8577H56.2702C57.6257 25.8577 58.7171 27.1126 58.7171 28.6712C58.7171 30.2297 57.6257 31.4846 56.2702 31.4846L16.7327 31.4859C15.3761 31.4859 14.2846 30.231 14.2846 28.6712L14.2857 28.6712ZM14.2857 39.8708C14.2857 38.3123 15.3771 37.0574 16.7327 37.0574H56.2702C57.6257 37.0574 58.7171 38.3123 58.7171 39.8708C58.7171 41.4294 57.6257 42.6843 56.2702 42.6843H16.7327C15.3761 42.6843 14.2846 41.4294 14.2846 39.8708H14.2857ZM14.2857 51.0692C14.2857 49.5107 15.3771 48.2558 16.7327 48.2558H56.2702C57.6257 48.2558 58.7171 49.5107 58.7171 51.0692C58.7171 52.6278 57.6257 53.8827 56.2702 53.8827H16.7327C15.3761 53.8827 14.2846 52.6089 14.2846 51.0692H14.2857Z" fill="#AEDCC0" />
</svg>