<?xml version="1.0" encoding="UTF-8"?>
<svg width="133" height="133" version="1.1" viewBox="0 0 700 700" xmlns="http://www.w3.org/2000/svg" xmlns:xlink="http://www.w3.org/1999/xlink" >
 <defs>
 
 </defs>
 <g>
  <path fill-rule="evenodd" clip-rule="evenodd" d="m606.71 72.625c-1.4141-0.23438-2.8867-0.41406-4.3633-0.41406h-504.71c-1.5312 0-3.0078 0.17578-4.4805 0.47266-13.086 2.1211-23.164 13.438-23.164 27.113v333.29c0 15.207 12.379 27.586 27.586 27.586h504.77c15.207 0 27.586-12.379 27.586-27.586l0.003906-333.29c0.058594-13.734-10.082-25.051-23.227-27.172zm-4.3008 17.035c0.23438 0 0.41406 0.058594 0.58984 0.058594l-253 208.97-252.94-208.97c0.17578 0 0.35547-0.058594 0.58984-0.058594zm0 353.51h-504.77c-5.6016 0-10.141-4.5391-10.141-10.141l0.003906-328.45 256.95 212.27c1.5898 1.3555 3.5977 2.0039 5.6016 2.0039s3.9492-0.64844 5.6016-2.0039l256.89-212.21v328.45c-0.066406 5.6016-4.6055 10.082-10.145 10.082z" fill="#AEDCC0"/>
  
 </g>
</svg>
