<svg width="19" height="19" viewBox="0 0 19 19" fill="none" xmlns="http://www.w3.org/2000/svg">
<path d="M17.6216 0.826172H1.12759C0.855576 0.82812 0.595279 0.933051 0.402933 1.1183C0.210586 1.30354 0.101632 1.55423 0.0996094 1.81619V17.7012C0.101632 17.9632 0.210586 18.2139 0.402933 18.3991C0.595279 18.5844 0.855576 18.6893 1.12759 18.6912H10.0084V11.7834H7.5969V9.08132H10.0084V7.09383C10.0084 4.78626 11.4692 3.52826 13.6179 3.52826C14.3367 3.52826 15.0555 3.52826 15.7744 3.63248V6.03682H14.2981C13.131 6.03682 12.9068 6.57277 12.9068 7.35437V9.07388H15.6893L15.3261 11.776H12.9068V18.6912H17.6216C17.8936 18.6893 18.1539 18.5844 18.3463 18.3991C18.5386 18.2139 18.6476 17.9632 18.6496 17.7012V1.81619C18.6476 1.55423 18.5386 1.30354 18.3463 1.1183C18.1539 0.933051 17.8936 0.82812 17.6216 0.826172Z" fill="#AEDCC0"/>
</svg>
