<svg width="19" height="19" viewBox="0 0 19 19" fill="none" xmlns="http://www.w3.org/2000/svg">
<path d="M5.3795 0.826172H13.1705C16.1385 0.826172 18.55 3.14863 18.55 6.00704V13.5104C18.55 14.8844 17.9832 16.2022 16.9744 17.1738C15.9655 18.1454 14.5972 18.6912 13.1705 18.6912H5.3795C2.4115 18.6912 0 16.3688 0 13.5104V6.00704C0 4.63299 0.566767 3.31522 1.57562 2.34361C2.58447 1.37201 3.95277 0.826172 5.3795 0.826172ZM5.194 2.61268C4.30844 2.61268 3.45915 2.95148 2.83297 3.55454C2.20679 4.1576 1.855 4.97553 1.855 5.82839V13.689C1.855 15.4666 3.34827 16.9047 5.194 16.9047H13.356C14.2416 16.9047 15.0908 16.5659 15.717 15.9629C16.3432 15.3598 16.695 14.5419 16.695 13.689V5.82839C16.695 4.05082 15.2017 2.61268 13.356 2.61268H5.194ZM14.1444 3.95256C14.4519 3.95256 14.7468 4.0702 14.9642 4.27959C15.1816 4.48899 15.3037 4.77299 15.3037 5.06913C15.3037 5.36526 15.1816 5.64926 14.9642 5.85866C14.7468 6.06806 14.4519 6.18569 14.1444 6.18569C13.8369 6.18569 13.542 6.06806 13.3246 5.85866C13.1071 5.64926 12.985 5.36526 12.985 5.06913C12.985 4.77299 13.1071 4.48899 13.3246 4.27959C13.542 4.0702 13.8369 3.95256 14.1444 3.95256ZM9.275 5.29244C10.5049 5.29244 11.6845 5.76299 12.5542 6.60058C13.4239 7.43817 13.9125 8.57418 13.9125 9.75871C13.9125 10.9432 13.4239 12.0792 12.5542 12.9168C11.6845 13.7544 10.5049 14.225 9.275 14.225C8.04506 14.225 6.86549 13.7544 5.99579 12.9168C5.12609 12.0792 4.6375 10.9432 4.6375 9.75871C4.6375 8.57418 5.12609 7.43817 5.99579 6.60058C6.86549 5.76299 8.04506 5.29244 9.275 5.29244ZM9.275 7.07895C8.53703 7.07895 7.82929 7.36128 7.30747 7.86383C6.78565 8.36638 6.4925 9.04799 6.4925 9.75871C6.4925 10.4694 6.78565 11.151 7.30747 11.6536C7.82929 12.1561 8.53703 12.4385 9.275 12.4385C10.013 12.4385 10.7207 12.1561 11.2425 11.6536C11.7643 11.151 12.0575 10.4694 12.0575 9.75871C12.0575 9.04799 11.7643 8.36638 11.2425 7.86383C10.7207 7.36128 10.013 7.07895 9.275 7.07895Z" fill="#AEDCC0"/>
</svg>
