<?xml version="1.0" encoding="UTF-8"?>
<svg width="700pt" height="700pt" version="1.1" viewBox="0 0 700 700" xmlns="http://www.w3.org/2000/svg" xmlns:xlink="http://www.w3.org/1999/xlink">
 <g>
  <path fill-rule="evenodd" clip-rule="evenodd" d="m542.5 183.75h-122.5v-35c0-38.5-31.5-70-70-70s-70 31.5-70 70v35h-122.5c-28.875 0-52.5 23.625-52.5 52.5v192.5c0 28.875 23.625 52.5 52.5 52.5h385c28.875 0 52.5-23.625 52.5-52.5v-43.75c0-9.625-7.875-17.5-17.5-17.5s-17.5 7.875-17.5 17.5v43.75c0 9.625-7.875 17.5-17.5 17.5h-385c-9.625 0-17.5-7.875-17.5-17.5v-192.5c0-9.625 7.875-17.5 17.5-17.5h385c9.625 0 17.5 7.875 17.5 17.5v43.75c0 9.625 7.875 17.5 17.5 17.5s17.5-7.875 17.5-17.5v-43.75c0-28.875-23.625-52.5-52.5-52.5zm-192.5-61.25c9.625 0 17.5 7.875 17.5 17.5s-7.875 17.5-17.5 17.5-17.5-7.875-17.5-17.5 7.875-17.5 17.5-17.5zm-149.62 222.25c-10.5-9.625-16.625-23.625-16.625-38.5 0-28.875 23.625-52.5 52.5-52.5s52.5 23.625 52.5 52.5c0 14.875-6.125 28.875-16.625 38.5 14.875 11.375 25.375 28.875 25.375 49 0 9.625-7.875 17.5-17.5 17.5h-87.5c-9.625 0-17.5-7.875-17.5-17.5 0-20.125 9.625-38.5 25.375-49zm324.62-73.5c0 9.625-7.875 17.5-17.5 17.5h-157.5c-9.625 0-17.5-7.875-17.5-17.5s7.875-17.5 17.5-17.5h157.5c9.625 0 17.5 7.875 17.5 17.5zm0 61.25c0 9.625-7.875 17.5-17.5 17.5h-157.5c-9.625 0-17.5-7.875-17.5-17.5s7.875-17.5 17.5-17.5h157.5c9.625 0 17.5 7.875 17.5 17.5zm0 61.25c0 9.625-7.875 17.5-17.5 17.5h-157.5c-9.625 0-17.5-7.875-17.5-17.5s7.875-17.5 17.5-17.5h157.5c9.625 0 17.5 7.875 17.5 17.5zm52.5-78.75c9.625 0 17.5 7.875 17.5 17.5s-7.875 17.5-17.5 17.5-17.5-7.875-17.5-17.5 7.875-17.5 17.5-17.5z" fill="#AEDCC0"/>
 </g>
</svg>
