<svg width="42" height="41" viewBox="0 0 42 41" fill="none" xmlns="http://www.w3.org/2000/svg">
	<path d="M40.202 13.1877H38.9706C38.9968 12.9349 38.8801 12.7203 38.6202 12.5444C38.5851 12.5291 37.8223 12.201 36.5329 11.8308V8.17237C36.5329 7.86167 36.2599 7.6099 35.9231 7.6099C30.7305 7.6099 26.7888 9.07609 24.3968 10.306C23.0499 10.9987 22.0352 11.6894 21.3603 12.204C21.2576 11.1736 20.9901 9.61072 20.3002 7.95514C18.7236 4.17051 15.6869 1.74436 11.5189 0.938542C11.0846 0.906936 10.8398 1.09041 10.7841 1.48896V4.05918C9.71238 3.65794 8.59625 3.34271 7.45403 3.12198C7.01966 3.09038 6.7749 3.27385 6.71915 3.6724V11.4193C4.47417 11.9129 3.06741 12.5169 3.00468 12.5442C2.7451 12.7204 2.62838 12.935 2.65423 13.1875L1.42288 13.1873C0.638335 13.1873 0.000140638 13.776 0.000140638 14.4997V31.6994C0.000140638 32.4266 1.21959 32.4266 1.21959 31.6994V14.4997C1.21959 14.3964 1.31076 14.3123 1.42284 14.3123H2.65418V36.431C2.65418 36.7417 2.92711 36.9935 3.26392 36.9935H38.3609C38.6977 36.9935 38.9706 36.7417 38.9706 36.431L38.9709 14.3123H40.2022C40.3143 14.3123 40.4055 14.3964 40.4055 14.4997V38.0118C40.4055 38.1152 40.3143 38.1993 40.2022 38.1993L22.6456 38.199C21.6572 37.26 19.968 37.26 18.9794 38.199H1.4227C1.31062 38.199 1.21945 38.1149 1.21945 38.0116V35.1242C1.21945 34.397 0 34.397 0 35.1242V38.0116C0 38.7353 0.638187 39.324 1.42274 39.324H19.2581C19.4489 39.324 19.6283 39.2418 19.7436 39.1017C20.2741 38.4575 21.3513 38.4575 21.8815 39.1017C21.9967 39.2418 22.1765 39.324 22.3669 39.324H40.2023C40.9869 39.324 41.6251 38.7353 41.6251 38.0116V14.4995C41.6251 13.7757 40.9869 13.187 40.2023 13.187L40.202 13.1877ZM35.3133 8.74175V14.5007C35.3133 14.8114 35.5863 15.0631 35.9231 15.0631C36.2599 15.0631 36.5328 14.8114 36.5328 14.5007V13.012C37.0679 13.1748 37.4828 13.3224 37.7511 13.4234V33.9061C33.2452 32.5902 29.508 32.7209 26.8195 33.2239C29.1615 32.2776 32.2139 31.4998 35.9234 31.4998C36.2602 31.4998 36.5331 31.248 36.5331 30.9373V17.9505C36.5331 17.6398 36.2602 17.388 35.9234 17.388C35.5866 17.388 35.3136 17.6398 35.3136 17.9505V30.3819C30.4216 30.4906 26.6951 31.8898 24.3976 33.0711C23.0924 33.742 22.0983 34.4122 21.4238 34.921V13.6553C22.352 12.8343 27.1864 8.92995 35.3138 8.74166L35.3133 8.74175ZM12.0036 2.20232C15.3975 3.05565 17.7993 5.1127 19.1485 8.32526C20.2475 10.9418 20.2042 13.384 20.2036 13.4095C20.2036 13.4138 20.2033 13.418 20.2033 13.4221V30.4928C18.6651 26.9846 15.8405 24.683 12.0033 23.806L12.0036 2.20232ZM10.7841 5.27877V24.2544C10.7841 24.5206 10.9865 24.7504 11.2687 24.8048C15.0525 25.536 17.7037 27.6509 19.1484 31.0906C19.5398 32.0227 19.7863 32.9323 19.9413 33.7187C19.471 33.0916 18.8781 32.3781 18.1507 31.6365C16.1822 29.6295 12.8327 27.0531 7.93859 25.987L7.93888 11.862V11.8601V4.37929C8.91676 4.60696 9.86974 4.90856 10.7843 5.27843L10.7841 5.27877ZM3.87376 13.4233C4.36968 13.2361 5.36965 12.8906 6.71917 12.5777V26.4375C6.71917 26.7037 6.92155 26.9335 7.20377 26.9879C12.0227 27.9192 15.3087 30.4235 17.2167 32.3605C17.9949 33.1504 18.6142 33.9133 19.0854 34.5601C18.3439 34.2226 17.4159 33.8661 16.3106 33.5667C13.6027 32.8328 9.29369 32.3236 3.87372 33.9063L3.87402 17.275V13.4229L3.87376 13.4233ZM3.87376 35.0902C9.14567 33.4695 13.3136 33.9372 15.9062 34.6301C17.2993 35.0024 18.396 35.4765 19.1605 35.8688L3.87384 35.8686L3.87376 35.0902ZM22.4606 35.8686C23.2115 35.4832 24.2863 35.0182 25.658 34.6465C28.2612 33.941 32.4493 33.4604 37.7514 35.0903V35.8687L22.4606 35.8686Z" fill="#AEDCC0" />
	<path d="M0.272047 40.4388C0.25811 40.4453 0.243302 40.4504 0.227914 40.4538C0.213106 40.4573 0.197717 40.4592 0.181458 40.4592C0.131808 40.4592 0.0923214 40.4469 0.062991 40.4217C0.0342462 40.396 0.0200195 40.3614 0.0200195 40.3178C0.0200195 40.2736 0.034247 40.239 0.062991 40.2139C0.0923162 40.1881 0.131804 40.1753 0.181458 40.1753C0.197717 40.1753 0.213106 40.1772 0.227914 40.1806C0.243302 40.1844 0.25811 40.1892 0.272047 40.1956V40.2524C0.25811 40.2439 0.244173 40.2374 0.230236 40.2331C0.21688 40.2289 0.202653 40.2267 0.187265 40.2267C0.159972 40.2267 0.138486 40.235 0.122226 40.2514C0.106547 40.2672 0.0989985 40.2894 0.0989985 40.3178C0.0989985 40.3456 0.106547 40.3679 0.122226 40.3842C0.138486 40.4 0.159972 40.4078 0.187265 40.4078C0.202653 40.4078 0.216881 40.4062 0.230236 40.4024C0.244173 40.3981 0.25811 40.3914 0.272047 40.3821V40.4388Z" fill="#AEDCC0" />
	<path d="M0.498599 40.3047C0.492212 40.302 0.486114 40.2999 0.480017 40.2983C0.473629 40.297 0.467532 40.2962 0.461435 40.2962C0.442852 40.2962 0.428335 40.302 0.418463 40.3133C0.409172 40.324 0.404526 40.3395 0.404526 40.3594V40.4536H0.33252V40.249H0.404526V40.2822C0.412946 40.2688 0.423109 40.2592 0.434723 40.2533C0.446917 40.2469 0.461435 40.2437 0.477694 40.2437H0.485824C0.488728 40.2437 0.492793 40.2442 0.497438 40.2447L0.498599 40.3047Z" fill="#AEDCC0" />
	<path d="M0.752248 40.3508V40.369H0.586166C0.588489 40.3848 0.594586 40.3966 0.604749 40.4044C0.61462 40.4116 0.629138 40.4151 0.64772 40.4151C0.663109 40.4151 0.678497 40.4135 0.694176 40.4097C0.709565 40.4054 0.725534 40.399 0.741793 40.3904V40.4408C0.725534 40.4472 0.708693 40.452 0.691853 40.4547C0.674722 40.4574 0.658172 40.459 0.641912 40.459C0.601553 40.459 0.570196 40.4499 0.54784 40.4311C0.525193 40.4119 0.51416 40.3851 0.51416 40.3508C0.51416 40.3181 0.524903 40.2919 0.546679 40.2726C0.569036 40.2533 0.599233 40.2437 0.637272 40.2437C0.672114 40.2437 0.699988 40.2533 0.720893 40.2726C0.741798 40.2919 0.752251 40.3181 0.752251 40.3508L0.752248 40.3508ZM0.680242 40.3283C0.680242 40.3162 0.675886 40.3066 0.667466 40.2994C0.659626 40.2916 0.649464 40.2876 0.637269 40.2876C0.623333 40.2876 0.612009 40.2913 0.603589 40.2983C0.594878 40.3055 0.589652 40.3154 0.587329 40.3283L0.680242 40.3283Z" fill="#AEDCC0" />
	<path d="M0.907151 40.3615C0.892343 40.3615 0.88102 40.3642 0.873471 40.369C0.866503 40.3733 0.863019 40.3803 0.863019 40.3894C0.863019 40.3974 0.865632 40.4038 0.871149 40.4086C0.877246 40.4129 0.885666 40.4151 0.8967 40.4151C0.909765 40.4151 0.921089 40.4108 0.93038 40.4022C0.939671 40.3936 0.944317 40.3827 0.944317 40.369V40.3615H0.907151ZM1.01633 40.3369V40.4536H0.94432V40.4236C0.935029 40.436 0.923995 40.4448 0.911801 40.4504C0.900187 40.4561 0.885669 40.459 0.868829 40.459C0.845601 40.459 0.826438 40.4531 0.811921 40.4408C0.797984 40.4279 0.791016 40.4119 0.791016 40.3926C0.791016 40.3685 0.799726 40.3505 0.817728 40.339C0.835439 40.3278 0.863604 40.3219 0.902509 40.3219H0.944319V40.3176C0.944319 40.3069 0.939673 40.2994 0.930382 40.2951C0.921672 40.2903 0.908315 40.2876 0.889733 40.2876C0.874054 40.2876 0.859827 40.2892 0.846761 40.2919C0.833405 40.2948 0.821501 40.2988 0.810758 40.3036V40.2544C0.825275 40.2509 0.840373 40.2485 0.856053 40.2469C0.871441 40.2447 0.886829 40.2437 0.902509 40.2437C0.942577 40.2437 0.971612 40.2512 0.989615 40.2662C1.00733 40.2806 1.01633 40.3042 1.01633 40.3369L1.01633 40.3369Z" fill="#AEDCC0" />
	<path d="M1.16037 40.1904V40.2494H1.23354V40.2954H1.16037V40.3833C1.16037 40.3927 1.16212 40.3991 1.16618 40.4026C1.17083 40.4055 1.17925 40.4068 1.19173 40.4068H1.22774V40.454H1.16734C1.1386 40.454 1.11856 40.4486 1.10695 40.4379C1.09534 40.4272 1.08953 40.409 1.08953 40.3833V40.2954H1.05469V40.2494H1.08953V40.1904L1.16037 40.1904Z" fill="#AEDCC0" />
	<path d="M1.49883 40.3508V40.369H1.33275C1.33507 40.3848 1.34117 40.3966 1.35133 40.4044C1.3612 40.4116 1.37572 40.4151 1.3943 40.4151C1.40969 40.4151 1.42508 40.4135 1.44076 40.4097C1.45615 40.4054 1.47212 40.399 1.48838 40.3904V40.4408C1.47212 40.4472 1.45528 40.452 1.43843 40.4547C1.4213 40.4574 1.40475 40.459 1.38849 40.459C1.34814 40.459 1.31678 40.4499 1.29442 40.4311C1.27177 40.4119 1.26074 40.3851 1.26074 40.3508C1.26074 40.3181 1.27149 40.2919 1.29326 40.2726C1.31562 40.2533 1.34581 40.2437 1.38385 40.2437C1.4187 40.2437 1.44657 40.2533 1.46748 40.2726C1.48838 40.2919 1.49883 40.3181 1.49883 40.3508L1.49883 40.3508ZM1.42682 40.3283C1.42682 40.3162 1.42247 40.3066 1.41405 40.2994C1.40621 40.2916 1.39605 40.2876 1.38385 40.2876C1.36991 40.2876 1.35859 40.2913 1.35017 40.2983C1.34146 40.3055 1.33623 40.3154 1.33391 40.3283L1.42682 40.3283Z" fill="#AEDCC0" />
	<path d="M1.70338 40.2793V40.1689H1.77422V40.4539H1.70338V40.4239C1.69321 40.4363 1.68247 40.4451 1.67086 40.4507C1.65924 40.4563 1.6456 40.4593 1.63021 40.4593C1.60233 40.4593 1.5794 40.4494 1.56168 40.4293C1.54455 40.4095 1.53613 40.3832 1.53613 40.3511C1.53613 40.3197 1.54455 40.294 1.56168 40.2739C1.57939 40.2541 1.60233 40.2439 1.63021 40.2439C1.64472 40.2439 1.65808 40.2469 1.66969 40.2525C1.68189 40.2584 1.69321 40.2672 1.70337 40.2793L1.70338 40.2793ZM1.65576 40.4122C1.67115 40.4122 1.68276 40.4073 1.6906 40.3972C1.69902 40.3864 1.70338 40.3712 1.70338 40.3511C1.70338 40.3318 1.69902 40.3173 1.6906 40.3072C1.68276 40.2964 1.67115 40.2911 1.65576 40.2911C1.64095 40.2911 1.62934 40.2964 1.62092 40.3072C1.61308 40.3173 1.6093 40.3318 1.6093 40.3511C1.6093 40.3712 1.61308 40.3864 1.62092 40.3972C1.62934 40.4073 1.64095 40.4122 1.65576 40.4122Z" fill="#AEDCC0" />
	<path d="M2.10333 40.4121C2.11871 40.4121 2.13033 40.4073 2.13817 40.3971C2.14659 40.3864 2.15094 40.3712 2.15094 40.3511C2.15094 40.3318 2.14659 40.3173 2.13817 40.3072C2.13033 40.2964 2.11871 40.2911 2.10333 40.2911C2.08852 40.2911 2.0769 40.2964 2.06848 40.3072C2.06064 40.3173 2.05687 40.3318 2.05687 40.3511C2.05687 40.3712 2.06064 40.3864 2.06848 40.3971C2.0769 40.4073 2.08852 40.4121 2.10333 40.4121ZM2.05687 40.2793C2.06616 40.2672 2.07661 40.2584 2.08823 40.2525C2.10042 40.2469 2.11436 40.2439 2.13004 40.2439C2.15704 40.2439 2.1794 40.2541 2.1974 40.2739C2.21511 40.294 2.22411 40.3197 2.22411 40.3511C2.22411 40.3832 2.21511 40.4095 2.1974 40.4293C2.1794 40.4494 2.15704 40.4593 2.13004 40.4593C2.11436 40.4593 2.10042 40.4563 2.08823 40.4507C2.07661 40.4451 2.06616 40.4363 2.05687 40.4239V40.4539H1.98486V40.1689H2.05687V40.2793Z" fill="#AEDCC0" />
	<path d="M2.24512 40.249H2.31596L2.37636 40.3872L2.42746 40.249H2.4983L2.40423 40.4729C2.39494 40.4957 2.38391 40.5118 2.37171 40.5212C2.35923 40.5303 2.34268 40.5351 2.32177 40.5351H2.28112V40.4912H2.30319C2.31538 40.4912 2.32438 40.4893 2.3299 40.4858C2.33513 40.482 2.33948 40.4762 2.34268 40.4676L2.345 40.4612L2.24512 40.249Z" fill="#AEDCC0" />
	<path d="M2.79864 40.4121C2.81403 40.4121 2.82564 40.4073 2.83348 40.3971C2.8419 40.3864 2.84626 40.3712 2.84626 40.3511C2.84626 40.3318 2.8419 40.3173 2.83348 40.3072C2.82564 40.2964 2.81403 40.2911 2.79864 40.2911C2.78383 40.2911 2.77222 40.2964 2.7638 40.3072C2.75596 40.3173 2.75218 40.3318 2.75218 40.3511C2.75218 40.3712 2.75596 40.3864 2.7638 40.3971C2.77222 40.4073 2.78383 40.4121 2.79864 40.4121ZM2.75218 40.2793C2.76147 40.2672 2.77193 40.2584 2.78354 40.2525C2.79574 40.2469 2.80967 40.2439 2.82535 40.2439C2.85235 40.2439 2.87471 40.2541 2.89271 40.2739C2.91042 40.294 2.91943 40.3197 2.91943 40.3511C2.91943 40.3832 2.91042 40.4095 2.89271 40.4293C2.87471 40.4494 2.85235 40.4593 2.82535 40.4593C2.80967 40.4593 2.79574 40.4563 2.78354 40.4507C2.77193 40.4451 2.76147 40.4363 2.75218 40.4239V40.4539H2.68018V40.1689H2.75218V40.2793Z" fill="#AEDCC0" />
	<path d="M3.07366 40.3615C3.05885 40.3615 3.04752 40.3642 3.03997 40.369C3.03301 40.3733 3.02952 40.3803 3.02952 40.3894C3.02952 40.3974 3.03214 40.4038 3.03765 40.4086C3.04375 40.4129 3.05217 40.4151 3.0632 40.4151C3.07627 40.4151 3.08759 40.4108 3.09688 40.4022C3.10618 40.3936 3.11082 40.3827 3.11082 40.369V40.3615H3.07366ZM3.18283 40.3369V40.4536H3.11082V40.4236C3.10153 40.436 3.0905 40.4448 3.0783 40.4504C3.06669 40.4561 3.05217 40.459 3.03533 40.459C3.0121 40.459 2.99294 40.4531 2.97842 40.4408C2.96449 40.4279 2.95752 40.4119 2.95752 40.3926C2.95752 40.3685 2.96623 40.3505 2.98423 40.339C3.00194 40.3278 3.03011 40.3219 3.06901 40.3219H3.11082V40.3176C3.11082 40.3069 3.10618 40.2994 3.09689 40.2951C3.08818 40.2903 3.07482 40.2876 3.05624 40.2876C3.04056 40.2876 3.02633 40.2892 3.01327 40.2919C2.99991 40.2948 2.98801 40.2988 2.97726 40.3036V40.2544C2.99178 40.2509 3.00688 40.2485 3.02256 40.2469C3.03794 40.2447 3.05333 40.2437 3.06901 40.2437C3.10908 40.2437 3.13812 40.2512 3.15612 40.2662C3.17383 40.2806 3.18283 40.3042 3.18283 40.3369L3.18283 40.3369Z" fill="#AEDCC0" />
	<path d="M3.24756 40.2493H3.31957V40.4539H3.24756V40.2493ZM3.24756 40.1689H3.31957V40.2225H3.24756V40.1689Z" fill="#AEDCC0" />
	<path d="M3.61087 40.3283V40.4536H3.53886V40.3583C3.53886 40.3406 3.53828 40.3283 3.5377 40.3219C3.53683 40.3149 3.53538 40.3098 3.53306 40.3069C3.53073 40.3026 3.52667 40.2994 3.52144 40.2972C3.5168 40.2945 3.51157 40.2929 3.50634 40.2929C3.49066 40.2929 3.47876 40.2983 3.47034 40.309C3.4625 40.3197 3.45873 40.3344 3.45873 40.3529V40.4536H3.38672V40.249H3.45873V40.279C3.4686 40.267 3.47992 40.2581 3.49241 40.2522C3.5046 40.2466 3.51796 40.2437 3.53189 40.2437C3.55744 40.2437 3.57661 40.2512 3.58996 40.2662C3.6039 40.2806 3.61087 40.3012 3.61087 40.3283L3.61087 40.3283Z" fill="#AEDCC0" />
	<path d="M3.64746 40.249H3.71831L3.7787 40.3872L3.8298 40.249H3.90065L3.80657 40.4729C3.79728 40.4957 3.78625 40.5118 3.77405 40.5212C3.76157 40.5303 3.74502 40.5351 3.72411 40.5351H3.68346V40.4912H3.70553C3.71773 40.4912 3.72673 40.4893 3.73224 40.4858C3.73747 40.482 3.74183 40.4762 3.74502 40.4676L3.74734 40.4612L3.64746 40.249Z" fill="#AEDCC0" />
	<path d="M0.180188 40.5439V40.5868H0.141862C0.131699 40.5868 0.12444 40.5887 0.119795 40.5922C0.11573 40.5959 0.113988 40.6015 0.113988 40.6093V40.6243H0.175542V40.6704H0.113988V40.8289H0.0431428V40.6704H0.00830078V40.6243H0.0431428V40.6093C0.0431428 40.5873 0.0495305 40.5707 0.0628862 40.56C0.076823 40.5493 0.0980189 40.5439 0.126764 40.5439L0.180188 40.5439Z" fill="#AEDCC0" />
	<path d="M0.377017 40.6797C0.37063 40.677 0.364532 40.6749 0.358435 40.6733C0.352047 40.672 0.34595 40.6712 0.339853 40.6712C0.32127 40.6712 0.306753 40.677 0.296881 40.6883C0.28759 40.699 0.282944 40.7145 0.282944 40.7344V40.8286H0.210938V40.624H0.282944V40.6572C0.291364 40.6438 0.301527 40.6342 0.313141 40.6283C0.325335 40.6219 0.339853 40.6187 0.356112 40.6187H0.364242C0.367146 40.6187 0.371211 40.6192 0.375856 40.6197L0.377017 40.6797Z" fill="#AEDCC0" />
	<path d="M0.516965 40.6658C0.501286 40.6658 0.489382 40.6711 0.480961 40.6819C0.473121 40.692 0.469347 40.7065 0.469347 40.7258C0.469347 40.7459 0.473121 40.7611 0.480961 40.7719C0.489381 40.782 0.501286 40.7869 0.516965 40.7869C0.532353 40.7869 0.544258 40.782 0.552969 40.7719C0.561389 40.7611 0.565744 40.7459 0.565744 40.7258C0.565744 40.7065 0.561389 40.692 0.552969 40.6819C0.544258 40.6712 0.532354 40.6658 0.516965 40.6658ZM0.516965 40.6187C0.555581 40.6187 0.585488 40.6283 0.606391 40.6476C0.627876 40.6663 0.63891 40.6923 0.63891 40.7258C0.63891 40.7601 0.627876 40.7869 0.606391 40.8061C0.585485 40.8249 0.55558 40.834 0.516965 40.834C0.478929 40.834 0.449023 40.8249 0.427539 40.8061C0.405762 40.7869 0.39502 40.7601 0.39502 40.7258C0.39502 40.6923 0.405762 40.6663 0.427539 40.6476C0.449024 40.6283 0.478931 40.6187 0.516965 40.6187Z" fill="#AEDCC0" />
	<path d="M0.895206 40.6572C0.903626 40.6452 0.914079 40.6358 0.926564 40.6294C0.938759 40.6224 0.952696 40.6187 0.968375 40.6187C0.993054 40.6187 1.01193 40.6262 1.02528 40.6412C1.03922 40.6556 1.04619 40.6762 1.04619 40.7033V40.8286H0.974181V40.7215C0.974762 40.7202 0.975343 40.7188 0.975343 40.7172V40.7097C0.975343 40.6947 0.97302 40.684 0.968374 40.6776C0.963729 40.6711 0.95618 40.6679 0.946307 40.6679C0.932371 40.6679 0.921337 40.6733 0.913788 40.684C0.90682 40.6942 0.903336 40.7086 0.903336 40.7279V40.8286H0.831329V40.7215C0.831329 40.6987 0.829006 40.684 0.824361 40.6776C0.820296 40.6712 0.813037 40.6679 0.802294 40.6679C0.788938 40.6679 0.778485 40.6733 0.770936 40.684C0.763967 40.6942 0.760483 40.7087 0.760483 40.7279V40.8286H0.688477V40.624H0.760483V40.654C0.768903 40.642 0.778485 40.6331 0.789518 40.6272C0.801132 40.6216 0.813907 40.6187 0.827844 40.6187C0.843232 40.6187 0.856879 40.6224 0.868493 40.6294C0.880107 40.6358 0.888818 40.6452 0.895206 40.6572L0.895206 40.6572Z" fill="#AEDCC0" />
	<path d="M1.33323 40.5654V40.6244H1.4064V40.6704H1.33323V40.7583C1.33323 40.7677 1.33497 40.7741 1.33903 40.7776C1.34368 40.7805 1.3521 40.7818 1.36458 40.7818H1.40059V40.829H1.3402C1.31145 40.829 1.29142 40.8236 1.2798 40.8129C1.26819 40.8022 1.26238 40.784 1.26238 40.7583V40.6704H1.22754V40.6244H1.26238V40.5654L1.33323 40.5654Z" fill="#AEDCC0" />
	<path d="M1.67239 40.7031V40.8284H1.60039V40.7331C1.60039 40.7154 1.5998 40.7031 1.59922 40.6967C1.59835 40.6897 1.5969 40.6846 1.59458 40.6817C1.59226 40.6774 1.58819 40.6742 1.58296 40.672C1.57832 40.6693 1.57309 40.6677 1.56787 40.6677C1.55219 40.6677 1.54028 40.6731 1.53186 40.6838C1.52402 40.6945 1.52025 40.7092 1.52025 40.7277V40.8284H1.44824V40.5435H1.52025V40.6538C1.53012 40.6418 1.54144 40.6329 1.55393 40.627C1.56612 40.6214 1.57948 40.6185 1.59342 40.6185C1.61897 40.6185 1.63813 40.626 1.65149 40.641C1.66542 40.6554 1.67239 40.676 1.67239 40.7031L1.67239 40.7031Z" fill="#AEDCC0" />
	<path d="M1.96026 40.7258V40.744H1.79417C1.7965 40.7598 1.80259 40.7716 1.81276 40.7794C1.82263 40.7866 1.83715 40.7901 1.85573 40.7901C1.87112 40.7901 1.8865 40.7885 1.90218 40.7847C1.91757 40.7804 1.93354 40.774 1.9498 40.7654V40.8158C1.93354 40.8222 1.9167 40.827 1.89986 40.8297C1.88273 40.8324 1.86618 40.834 1.84992 40.834C1.80956 40.834 1.7782 40.8249 1.75585 40.8061C1.7332 40.7869 1.72217 40.7601 1.72217 40.7258C1.72217 40.6931 1.73291 40.6669 1.75469 40.6476C1.77704 40.6283 1.80724 40.6187 1.84528 40.6187C1.88012 40.6187 1.908 40.6283 1.9289 40.6476C1.94981 40.6669 1.96026 40.6931 1.96026 40.7258L1.96026 40.7258ZM1.88825 40.7033C1.88825 40.6912 1.88389 40.6816 1.87547 40.6744C1.86763 40.6666 1.85747 40.6626 1.84528 40.6626C1.83134 40.6626 1.82002 40.6663 1.8116 40.6733C1.80289 40.6805 1.79766 40.6904 1.79534 40.7033L1.88825 40.7033Z" fill="#AEDCC0" />
	<path d="M2.16016 40.5557H2.2461L2.35294 40.7432V40.5557H2.42611V40.8289H2.34017L2.23332 40.6414V40.8289H2.16016V40.5557Z" fill="#AEDCC0" />
	<path d="M2.60193 40.6658C2.58625 40.6658 2.57434 40.6711 2.56592 40.6819C2.55808 40.692 2.55431 40.7065 2.55431 40.7258C2.55431 40.7459 2.55808 40.7611 2.56592 40.7719C2.57434 40.782 2.58625 40.7869 2.60193 40.7869C2.61731 40.7869 2.62922 40.782 2.63793 40.7719C2.64635 40.7611 2.65071 40.7459 2.65071 40.7258C2.65071 40.7065 2.64635 40.692 2.63793 40.6819C2.62922 40.6712 2.61731 40.6658 2.60193 40.6658ZM2.60193 40.6187C2.64054 40.6187 2.67045 40.6283 2.69135 40.6476C2.71284 40.6663 2.72387 40.6923 2.72387 40.7258C2.72387 40.7601 2.71284 40.7869 2.69135 40.8061C2.67045 40.8249 2.64054 40.834 2.60193 40.834C2.56389 40.834 2.53398 40.8249 2.5125 40.8061C2.49072 40.7869 2.47998 40.7601 2.47998 40.7258C2.47998 40.6923 2.49072 40.6663 2.5125 40.6476C2.53399 40.6283 2.56389 40.6187 2.60193 40.6187Z" fill="#AEDCC0" />
	<path d="M2.77246 40.7483V40.624H2.84447V40.6444V40.6862V40.7194C2.84447 40.736 2.84476 40.748 2.84563 40.7558C2.84621 40.763 2.84795 40.7681 2.85027 40.7708C2.85318 40.7751 2.85724 40.7788 2.86189 40.7815C2.86653 40.7837 2.87176 40.7847 2.87815 40.7847C2.89267 40.7847 2.90428 40.7794 2.91299 40.7687C2.92141 40.7579 2.92577 40.7435 2.92577 40.7247V40.624H2.99661V40.8287H2.92577V40.7987C2.91473 40.811 2.90312 40.8198 2.89092 40.8254C2.87931 40.8311 2.86595 40.834 2.85144 40.834C2.82589 40.834 2.80614 40.8271 2.7922 40.8126C2.77885 40.7976 2.77246 40.7762 2.77246 40.7483L2.77246 40.7483Z" fill="#AEDCC0" />
	<path d="M3.29007 40.7033V40.8286H3.21806V40.7333C3.21806 40.7156 3.21748 40.7033 3.2169 40.6969C3.21603 40.6899 3.21458 40.6848 3.21225 40.6819C3.20993 40.6776 3.20587 40.6744 3.20064 40.6722C3.19599 40.6695 3.19077 40.6679 3.18554 40.6679C3.16986 40.6679 3.15796 40.6733 3.14954 40.684C3.1417 40.6947 3.13792 40.7094 3.13792 40.7279V40.8286H3.06592V40.624H3.13792V40.654C3.1478 40.642 3.15912 40.6331 3.17161 40.6272C3.1838 40.6216 3.19716 40.6187 3.21109 40.6187C3.23664 40.6187 3.25581 40.6262 3.26916 40.6412C3.2831 40.6556 3.29007 40.6762 3.29007 40.7033L3.29007 40.7033Z" fill="#AEDCC0" />
	<path d="M3.49805 40.5557H3.62464C3.66238 40.5557 3.69142 40.5637 3.71174 40.5792C3.73178 40.5942 3.74194 40.6162 3.74194 40.6446C3.74194 40.6732 3.73178 40.6955 3.71174 40.711C3.69142 40.726 3.66239 40.7335 3.62464 40.7335H3.5747V40.8289H3.49805L3.49805 40.5557ZM3.5747 40.6071V40.6832H3.61651C3.63102 40.6832 3.64235 40.6799 3.65019 40.6735C3.65861 40.6666 3.66296 40.6569 3.66296 40.6446C3.66296 40.6325 3.65861 40.6232 3.65019 40.6167C3.64235 40.6103 3.63102 40.6071 3.61651 40.6071L3.5747 40.6071Z" fill="#AEDCC0" />
	<path d="M3.95856 40.6797C3.95217 40.677 3.94608 40.6749 3.93998 40.6733C3.93359 40.672 3.92749 40.6712 3.9214 40.6712C3.90281 40.6712 3.8883 40.677 3.87842 40.6883C3.86913 40.699 3.86449 40.7145 3.86449 40.7344V40.8286H3.79248V40.624H3.86449V40.6572C3.87291 40.6438 3.88307 40.6342 3.89468 40.6283C3.90688 40.6219 3.9214 40.6187 3.93766 40.6187H3.94579C3.94869 40.6187 3.95275 40.6192 3.9574 40.6197L3.95856 40.6797Z" fill="#AEDCC0" />
	<path d="M4.09753 40.6658C4.08185 40.6658 4.06995 40.6711 4.06153 40.6819C4.05369 40.692 4.04991 40.7065 4.04991 40.7258C4.04991 40.7459 4.05369 40.7611 4.06153 40.7719C4.06995 40.782 4.08185 40.7869 4.09753 40.7869C4.11292 40.7869 4.12482 40.782 4.13353 40.7719C4.14195 40.7611 4.14631 40.7459 4.14631 40.7258C4.14631 40.7065 4.14196 40.692 4.13353 40.6819C4.12482 40.6712 4.11292 40.6658 4.09753 40.6658ZM4.09753 40.6187C4.13615 40.6187 4.16605 40.6283 4.18696 40.6476C4.20844 40.6663 4.21948 40.6923 4.21948 40.7258C4.21948 40.7601 4.20844 40.7869 4.18696 40.8061C4.16605 40.8249 4.13615 40.834 4.09753 40.834C4.0595 40.834 4.02959 40.8249 4.00811 40.8061C3.98633 40.7869 3.97559 40.7601 3.97559 40.7258C3.97559 40.6923 3.98633 40.6663 4.00811 40.6476C4.02959 40.6283 4.0595 40.6187 4.09753 40.6187Z" fill="#AEDCC0" />
	<path d="M4.27174 40.6238H4.34375V40.8252C4.34375 40.8523 4.3362 40.8729 4.32168 40.8874C4.30774 40.9024 4.28713 40.9099 4.26012 40.9099H4.22412V40.8659H4.2369C4.24996 40.8659 4.25896 40.863 4.26361 40.8574C4.26884 40.8523 4.27174 40.8416 4.27174 40.8252L4.27174 40.6238ZM4.27174 40.5435H4.34375V40.597H4.27174V40.5435Z" fill="#AEDCC0" />
	<path d="M4.63506 40.7258V40.744H4.46898C4.4713 40.7598 4.4774 40.7716 4.48756 40.7794C4.49743 40.7866 4.51195 40.7901 4.53053 40.7901C4.54592 40.7901 4.56131 40.7885 4.57699 40.7847C4.59238 40.7804 4.60835 40.774 4.62461 40.7654V40.8158C4.60835 40.8222 4.59151 40.827 4.57467 40.8297C4.55753 40.8324 4.54098 40.834 4.52472 40.834C4.48437 40.834 4.45301 40.8249 4.43065 40.8061C4.40801 40.7869 4.39697 40.7601 4.39697 40.7258C4.39697 40.6931 4.40772 40.6669 4.42949 40.6476C4.45185 40.6283 4.48205 40.6187 4.52008 40.6187C4.55493 40.6187 4.5828 40.6283 4.60371 40.6476C4.62461 40.6669 4.63506 40.6931 4.63506 40.7258L4.63506 40.7258ZM4.56305 40.7033C4.56305 40.6912 4.5587 40.6816 4.55028 40.6744C4.54244 40.6666 4.53228 40.6626 4.52008 40.6626C4.50615 40.6626 4.49482 40.6663 4.4864 40.6733C4.47769 40.6805 4.47246 40.6904 4.47014 40.7033L4.56305 40.7033Z" fill="#AEDCC0" />
	<path d="M4.8662 40.6304V40.6829C4.8569 40.6773 4.84703 40.673 4.83716 40.6701C4.827 40.6674 4.81684 40.6658 4.80696 40.6658C4.78664 40.6658 4.77125 40.6711 4.76051 40.6819C4.74947 40.6926 4.74425 40.7073 4.74425 40.7258C4.74425 40.7451 4.74947 40.7601 4.76051 40.7708C4.77125 40.7815 4.78664 40.7869 4.80696 40.7869C4.81771 40.7869 4.82816 40.7855 4.83832 40.7826C4.84819 40.7799 4.85749 40.7751 4.8662 40.7686V40.8222C4.85516 40.8265 4.84413 40.8292 4.83252 40.8308C4.8209 40.8329 4.80929 40.834 4.79767 40.834C4.75731 40.834 4.72596 40.8249 4.7036 40.8061C4.68095 40.7869 4.66992 40.7601 4.66992 40.7258C4.66992 40.6923 4.68096 40.6663 4.7036 40.6476C4.72596 40.6283 4.75732 40.6187 4.79767 40.6187C4.80929 40.6187 4.8209 40.6197 4.83252 40.6219C4.84413 40.6235 4.85516 40.6262 4.8662 40.6304H4.8662Z" fill="#AEDCC0" />
	<path d="M5.00559 40.5649V40.6239H5.07876V40.6699H5.00559V40.7578C5.00559 40.7672 5.00733 40.7736 5.0114 40.7771C5.01604 40.78 5.02446 40.7814 5.03695 40.7814H5.07295V40.8285H5.01256C4.98381 40.8285 4.96378 40.8231 4.95217 40.8124C4.94055 40.8017 4.93474 40.7835 4.93474 40.7578V40.6699H4.8999V40.6239H4.93474V40.5649L5.00559 40.5649Z" fill="#AEDCC0" />
</svg>