<svg width="149" height="154" viewBox="0 0 149 154" fill="none" xmlns="http://www.w3.org/2000/svg">
	<path d="M134.596 10.6754V0H64.8697V0.0611019C64.5807 0.0611019 64.3497 0 64.0606 0H0V153.967L131.475 153.965C135.891 153.964 140.125 152.117 143.247 148.833C146.37 145.548 148.125 141.093 148.127 136.446V10.6776L134.596 10.6754ZM6.24391 147.394V6.57017H64.0603C67.3086 6.58239 70.4228 7.93752 72.7328 10.3424C75.0416 12.7553 76.3323 16.0425 76.3167 19.4672V48.2399H104.474C107.229 48.2561 109.867 49.4144 111.816 51.4647C113.765 53.5151 114.866 56.2906 114.881 59.1897V136.446C114.857 140.428 116.143 144.298 118.523 147.396L6.24391 147.394ZM141.881 136.444H141.88C142.095 139.482 141.099 142.476 139.13 144.708C137.162 146.94 134.397 148.21 131.503 148.21C128.608 148.21 125.844 146.94 123.874 144.708C121.905 142.475 120.908 139.481 121.124 136.444V59.1878C121.143 54.5413 119.37 50.0846 116.21 46.8397L77.9913 6.56912H128.351V141.188H134.595L134.596 17.1538H141.881L141.881 136.444Z" fill="#AEDCC0" />
	<path d="M17.4009 59.1599H66.221V110.519H17.4009V59.1599Z" fill="#AEDCC0" />
	<path d="M17.51 121.427H105.731V127.984H17.51V121.427Z" fill="#AEDCC0" />
	<path d="M17.51 41.6925H66.1154V48.2495H17.51V41.6925Z" fill="#AEDCC0" />
	<path d="M17.51 29.1265H66.1154V35.6834H17.51V29.1265Z" fill="#AEDCC0" />
	<path d="M17.51 16.5638H66.1154V23.1208H17.51V16.5638Z" fill="#AEDCC0" />
	<path d="M74.0479 59.1599H102.604V65.7169H74.0479V59.1599Z" fill="#AEDCC0" />
	<path d="M74.0479 74.0933H102.604V80.6502H74.0479V74.0933Z" fill="#AEDCC0" />
	<path d="M74.0479 89.0265H102.604V95.5834H74.0479V89.0265Z" fill="#AEDCC0" />
	<path d="M74.0479 103.96H102.604V110.517H74.0479V103.96Z" fill="#AEDCC0" />
</svg>