<?xml version="1.0" encoding="UTF-8"?>
<svg width="133" height="133" version="1.1" viewBox="0 0 700 700" xmlns="http://www.w3.org/2000/svg" xmlns:xlink="http://www.w3.org/1999/xlink">

 <g>
  <path fill-rule="evenodd" clip-rule="evenodd" d="m462.35 180.25h-24.965v-32.785c0-44.566-42.816-80.734-87.383-80.734s-87.383 36.168-87.383 80.734v32.785h-24.965l-0.007812 149.92h224.82v-149.92zm-74.902 0h-74.898v-32.785c0-22.633 14.934-40.949 37.449-40.949 22.633 0 37.449 18.434 37.449 40.949zm-190.75 228.32c-1.2852-4.082-5.1328-7-9.332-7-1.168 0-2.2148 0.23438-3.2656 0.69922l-31.734 13.301 3.0352-34.301c0.23438-2.4492-0.69922-5.0156-2.5664-7-1.8711-2.0977-4.4375-3.2656-7.1211-3.2656h-15.047c-2.6836 0-5.25 1.168-7.1172 3.2656-1.75 1.9844-2.6836 4.4336-2.5664 7l2.8008 34.535-31.852-13.535c-1.0508-0.46484-2.1016-0.69922-3.2656-0.69922-4.1992 0-8.168 2.918-9.332 7l-4.5508 14.117c-0.81641 2.5664-0.46484 5.6016 0.93359 8.0508 1.2852 2.332 3.3828 3.8516 5.7148 4.4336l33.25 7.6992-22.285 25.785c-1.5156 1.9844-2.2148 4.5508-1.9844 7.1172 0.35156 2.6836 1.75 5.0156 3.8516 6.6484l12.25 8.75c1.75 1.2852 3.8516 1.9844 6.0664 1.9844 3.3828 0 6.3008-1.6328 7.6992-4.1992l17.734-29.516 17.734 29.516c1.6328 2.5664 4.668 4.1992 7.9336 4.1992 1.9844 0 3.9648-0.58203 5.7148-1.75l12.25-8.8672c2.332-1.6328 3.7344-4.1992 4.082-7.1172 0.23438-2.6836-0.46484-5.1328-2.1016-7l-22.285-26.016 33.25-7.8164c2.4492-0.58203 4.5508-2.1016 5.832-4.4336 1.3984-2.4492 1.6328-5.25 0.81641-7.6992zm141.29 0c-1.2852-4.082-5.1328-7-9.332-7-1.168 0-2.2148 0.23438-3.2656 0.69922l-31.734 13.301 3.0352-34.301c0.23438-2.4492-0.69922-5.0156-2.5664-7-1.8672-2.1016-4.4336-3.1484-7.1172-3.1484h-15.051c-2.6836 0-5.25 1.168-7.1172 3.2656-1.75 1.9844-2.6836 4.4336-2.5664 7l2.8008 34.535-31.852-13.535c-1.0508-0.46484-2.1016-0.69922-3.2656-0.69922-4.1992 0-8.168 2.918-9.332 7l-4.5508 14.117c-0.81641 2.5664-0.46484 5.6016 0.93359 8.0508 1.2852 2.332 3.3828 3.8516 5.7148 4.4336l33.25 7.6992-22.285 25.785c-1.5156 1.9844-2.2148 4.5508-1.9844 7.1172 0.35156 2.6836 1.75 5.0156 3.9648 6.6484l12.25 8.75c1.75 1.2852 3.8516 1.9844 6.0664 1.9844 3.3828 0 6.3008-1.6328 7.6992-4.1992l17.734-29.516 17.734 29.516c1.6328 2.5664 4.668 4.1992 7.9336 4.1992 1.9844 0 3.9648-0.58203 5.7148-1.75l12.25-8.8672c2.332-1.6328 3.7344-4.1992 4.082-7.1172 0.23438-2.6836-0.46484-5.1328-2.1016-7l-22.285-26.016 33.25-7.8164c2.4492-0.58203 4.5508-2.1016 5.832-4.4336 1.3984-2.4492 1.6328-5.25 0.81641-7.6992zm287.23 14.234-4.5508-14.117c-1.2852-4.082-5.1328-7-9.332-7-1.168 0-2.2148 0.23438-3.2656 0.69922l-31.734 13.301 3.0352-34.301c0.23437-2.4492-0.69922-5.0156-2.5664-7-1.8672-2.1016-4.4336-3.1484-7.1172-3.1484h-15.051c-2.6836 0-5.25 1.168-7.1172 3.2656-1.75 1.9844-2.6836 4.4336-2.5664 7l2.8008 34.535-31.852-13.535c-1.0508-0.46484-2.1016-0.69922-3.2656-0.69922-4.1992 0-8.168 2.918-9.332 7l-4.5508 14.117c-0.81641 2.5664-0.46484 5.6016 0.93359 8.0508 1.2852 2.332 3.3828 3.8516 5.7148 4.4336l33.25 7.6992-22.285 25.785c-1.5156 1.9844-2.2148 4.5508-1.9844 7.1172 0.35156 2.6836 1.75 5.0156 3.9648 6.6484l12.25 8.75c1.75 1.2852 3.8516 1.9844 6.0664 1.9844 3.3828 0 6.3008-1.6328 7.6992-4.1992l17.734-29.516 17.734 29.516c1.6328 2.5664 4.668 4.1992 7.9336 4.1992 1.9844 0 3.9648-0.58203 5.7148-1.75l12.25-8.8672c2.332-1.6328 3.7344-4.1992 4.082-7.1172 0.23438-2.6836-0.46484-5.1328-2.1016-7l-22.285-26.016 33.25-7.8164c2.4492-0.58203 4.5508-2.1016 5.832-4.4336 1.1797-2.3359 1.5312-5.1367 0.71094-7.5859zm-145.83-14.234c-1.2852-4.082-5.1328-7-9.332-7-1.168 0-2.2148 0.23438-3.2656 0.69922l-31.734 13.301 3.0352-34.301c0.23437-2.4492-0.69922-5.0156-2.5664-7-1.8672-2.1016-4.4336-3.1484-7.1172-3.1484h-15.051c-2.6836 0-5.25 1.168-7.1172 3.2656-1.75 1.9844-2.6836 4.4336-2.5664 7l2.8008 34.535-31.852-13.535c-1.0508-0.46484-2.1016-0.69922-3.2656-0.69922-4.1992 0-8.168 2.918-9.332 7l-4.5508 14.117c-0.81641 2.5664-0.46484 5.6016 0.93359 8.0508 1.2852 2.332 3.3828 3.8516 5.7148 4.4336l33.25 7.6992-22.285 25.785c-1.5156 1.9844-2.2148 4.5508-1.9844 7.1172 0.35156 2.6836 1.75 5.0156 3.9648 6.6484l12.25 8.75c1.75 1.2852 3.8516 1.9844 6.0664 1.9844 3.3828 0 6.3008-1.6328 7.6992-4.1992l17.734-29.516 17.734 29.516c1.6328 2.5664 4.668 4.1992 7.9336 4.1992 1.9844 0 3.9648-0.58203 5.7148-1.75l12.25-8.8672c2.332-1.6328 3.7344-4.1992 4.082-7.1172 0.23438-2.6836-0.46484-5.1328-2.1016-7l-22.285-26.016 33.25-7.8164c2.4492-0.58203 4.5508-2.1016 5.832-4.4336 1.3984-2.4492 1.6328-5.25 0.81641-7.6992z" fill="#AEDCC0"/>

 </g>
</svg>
