<svg width="66" height="66" viewBox="0 0 66 66" fill="none" xmlns="http://www.w3.org/2000/svg">
<circle cx="33" cy="33" r="33" fill="#AEDCC0"/>
<path d="M48.2411 21.8693H38.3036V18.5795C38.3036 14.9608 35.7482 12 32.625 12C29.5018 12 26.9464 14.9608 26.9464 18.5795V21.8693H17.0089C14.6665 21.8693 12.75 24.0899 12.75 26.8039V44.8976C12.75 47.6116 14.6665 49.8322 17.0089 49.8322H48.2411C50.5835 49.8322 52.5 47.6116 52.5 44.8976V40.7854C52.5 39.8807 51.8612 39.1405 51.0804 39.1405C50.2996 39.1405 49.6607 39.8807 49.6607 40.7854V44.8976C49.6607 45.8023 49.0219 46.5425 48.2411 46.5425H17.0089C16.2281 46.5425 15.5893 45.8023 15.5893 44.8976V26.8039C15.5893 25.8992 16.2281 25.159 17.0089 25.159H48.2411C49.0219 25.159 49.6607 25.8992 49.6607 26.8039V30.9161C49.6607 31.8208 50.2996 32.561 51.0804 32.561C51.8612 32.561 52.5 31.8208 52.5 30.9161V26.8039C52.5 24.0899 50.5835 21.8693 48.2411 21.8693ZM32.625 16.1122C33.4058 16.1122 34.0446 16.8524 34.0446 17.7571C34.0446 18.6618 33.4058 19.402 32.625 19.402C31.8442 19.402 31.2054 18.6618 31.2054 17.7571C31.2054 16.8524 31.8442 16.1122 32.625 16.1122ZM20.4875 37.0022C19.6357 36.0975 19.1388 34.7816 19.1388 33.3834C19.1388 30.6694 21.0553 28.4488 23.3977 28.4488C25.7401 28.4488 27.6567 30.6694 27.6567 33.3834C27.6567 34.7816 27.1598 36.0975 26.308 37.0022C27.5147 38.0713 28.3665 39.7162 28.3665 41.6078C28.3665 42.5125 27.7276 43.2527 26.9468 43.2527H19.8486C19.0678 43.2527 18.429 42.5125 18.429 41.6078C18.429 39.7162 19.2098 37.9891 20.4875 37.0022ZM46.8214 30.0937C46.8214 30.9984 46.1826 31.7386 45.4018 31.7386H32.625C31.8442 31.7386 31.2054 30.9984 31.2054 30.0937C31.2054 29.189 31.8442 28.4488 32.625 28.4488H45.4018C46.1826 28.4488 46.8214 29.189 46.8214 30.0937ZM46.8214 35.8508C46.8214 36.7554 46.1826 37.4956 45.4018 37.4956H32.625C31.8442 37.4956 31.2054 36.7554 31.2054 35.8508C31.2054 34.9461 31.8442 34.2059 32.625 34.2059H45.4018C46.1826 34.2059 46.8214 34.9461 46.8214 35.8508ZM46.8214 41.6078C46.8214 42.5125 46.1826 43.2527 45.4018 43.2527H32.625C31.8442 43.2527 31.2054 42.5125 31.2054 41.6078C31.2054 40.7032 31.8442 39.963 32.625 39.963H45.4018C46.1826 39.963 46.8214 40.7032 46.8214 41.6078ZM51.0804 34.2059C51.8612 34.2059 52.5 34.9461 52.5 35.8508C52.5 36.7554 51.8612 37.4956 51.0804 37.4956C50.2996 37.4956 49.6607 36.7554 49.6607 35.8508C49.6607 34.9461 50.2996 34.2059 51.0804 34.2059Z" fill="#343E3D"/>
</svg>
