<svg width="15" height="14" viewBox="0 0 15 14" fill="none" xmlns="http://www.w3.org/2000/svg">
<path d="M1.57867 4.84283C1.49965 4.84283 1.42533 4.83019 1.34766 4.82541L1.83959 12.1837C1.89446 12.956 2.75504 13.5611 3.79716 13.56H10.4529C11.4957 13.561 12.3565 12.9552 12.4105 12.1822L12.9031 4.82543C12.8247 4.83031 12.7504 4.84286 12.6714 4.84286L1.57867 4.84283ZM5.16754 12.1071C5.16754 12.3745 4.87536 12.5914 4.51502 12.5914C4.15468 12.5914 3.8625 12.3745 3.8625 12.1071V6.29568C3.8625 6.02826 4.15468 5.8114 4.51502 5.8114C4.87536 5.8114 5.16754 6.02825 5.16754 6.29568V12.1071ZM7.77763 12.1071C7.77763 12.3745 7.48545 12.5914 7.12511 12.5914C6.76477 12.5914 6.47259 12.3745 6.47259 12.1071V6.29568C6.47259 6.02826 6.76477 5.8114 7.12511 5.8114C7.48545 5.8114 7.77763 6.02825 7.77763 6.29568V12.1071ZM10.3877 12.1071C10.3877 12.3745 10.0955 12.5914 9.7352 12.5914C9.37486 12.5914 9.08268 12.3745 9.08268 12.1071V6.29568C9.08268 6.02826 9.37486 5.8114 9.7352 5.8114C10.0955 5.8114 10.3877 6.02825 10.3877 6.29568V12.1071Z" fill="#343E3D"/>
<path d="M12.6714 1.45285H10.3771C10.3676 0.653451 9.49668 0.00706034 8.41957 0H5.81995C4.73883 0 3.86239 0.650469 3.86239 1.45285H1.57856C-0.52847 1.45285 -0.523902 3.87427 1.57856 3.87427H12.6714C14.7785 3.87427 14.7739 1.45285 12.6714 1.45285ZM5.16743 1.45285C5.16743 1.18542 5.45962 0.968567 5.81995 0.968567H8.42091C8.77925 0.972251 9.06845 1.18691 9.07343 1.45285H5.16743Z" fill="#343E3D"/>
</svg>
