<svg width="13" height="14" viewBox="0 0 13 14" fill="none" xmlns="http://www.w3.org/2000/svg">
<path d="M1.40456 4.84286C1.33433 4.84286 1.26827 4.83022 1.19922 4.82544L1.63649 12.1837C1.68527 12.9561 2.45023 13.5611 3.37655 13.56H9.29276C10.2197 13.561 10.9849 12.9552 11.0328 12.1822L11.4707 4.82547C11.4011 4.83034 11.335 4.84289 11.2648 4.84289L1.40456 4.84286ZM4.59467 12.1071C4.59467 12.3745 4.33495 12.5914 4.01465 12.5914C3.69435 12.5914 3.43463 12.3745 3.43463 12.1071V6.29571C3.43463 6.02829 3.69435 5.81143 4.01465 5.81143C4.33495 5.81143 4.59467 6.02828 4.59467 6.29571V12.1071ZM6.91475 12.1071C6.91475 12.3745 6.65503 12.5914 6.33473 12.5914C6.01443 12.5914 5.75471 12.3745 5.75471 12.1071V6.29571C5.75471 6.02829 6.01443 5.81143 6.33473 5.81143C6.65503 5.81143 6.91475 6.02828 6.91475 6.29571V12.1071ZM9.23483 12.1071C9.23483 12.3745 8.97511 12.5914 8.65481 12.5914C8.33451 12.5914 8.07479 12.3745 8.07479 12.1071V6.29571C8.07479 6.02829 8.33451 5.81143 8.65481 5.81143C8.97511 5.81143 9.23483 6.02828 9.23483 6.29571V12.1071Z" fill="white"/>
<path d="M11.2635 1.45285H9.22412C9.21566 0.653451 8.44149 0.00706034 7.48406 0H5.17329C4.21229 0 3.43323 0.650469 3.43323 1.45285H1.40316C-0.469751 1.45285 -0.465691 3.87427 1.40316 3.87427H11.2635C13.1364 3.87427 13.1324 1.45285 11.2635 1.45285ZM4.59327 1.45285C4.59327 1.18542 4.85299 0.968567 5.17329 0.968567H7.48525C7.80378 0.972251 8.06085 1.18691 8.06527 1.45285H4.59327Z" fill="white"/>
</svg>
