<?xml version="1.0" encoding="UTF-8"?>
<svg width="700pt" height="700pt" version="1.1" viewBox="0 0 700 700" xmlns="http://www.w3.org/2000/svg">
 <g>
  <path d="m587.64 353.22-33.012-33.094c-3.2734-3.2812-7.7148-5.1289-12.348-5.1289h-87.277v70h122.2c0.12109-0.015625 0.23828-0.007812 0.34766 0 9.6406 0 17.457-7.8359 17.457-17.5 0-5.8945-2.9062-11.109-7.3633-14.277z" fill="#AEDCC0"/>
  <path d="m112.36 353.22 33.012-33.094c3.2734-3.2812 7.7148-5.1289 12.348-5.1289h87.277v70h-122.2c-0.12109-0.015625-0.23828-0.007812-0.34766 0-9.6406 0-17.457-7.8359-17.457-17.5 0-5.8945 2.9062-11.109 7.3633-14.277z" fill="#AEDCC0"/>
  <path d="m122.15 402.5v122.5h122.5v-122.5zm52.5 105h-35v-35h35zm0-52.5h-35v-35h35zm52.5 52.5h-35v-35h35zm0-52.5h-35v-35h35z" fill="#AEDCC0"/>
  <path d="m454.65 402.5v122.5h122.5v-122.5zm52.5 105h-35v-35h35zm0-52.5h-35v-35h35zm52.5 52.5h-35v-35h35zm0-52.5h-35v-35h35z" fill="#AEDCC0"/>
  <path d="m420 52.5v140h-38c-27.25 0-52.859 10.613-72.129 29.875l-12.371 12.371-12.375-12.375c-19.266-19.258-44.875-29.871-72.125-29.871h-38v-140c-9.6641 0-17.5 7.8359-17.5 17.5v122.5c0 9.6641 7.8359 17.5 17.5 17.5h35c27.906 0 56.695 11.449 75.129 29.875 3.418 3.418 7.8945 5.125 12.371 5.125s8.957-1.7109 12.375-5.1289c18.43-18.422 47.219-29.871 75.125-29.871h35c9.6641 0 17.5-7.8359 17.5-17.5v-122.5c0-9.6641-7.8359-17.5-17.5-17.5z" fill="#AEDCC0"/>
  <path d="m382 35c-31.691 0-62.086 12.59-84.496 35-22.41-22.41-52.805-35-84.496-35h-20.504v140h20.504c31.691 0 62.086 12.59 84.496 35 22.41-22.41 52.805-35 84.496-35h20.504v-140zm-104.56 119.94c-1.7109 1.707-3.9492 2.5625-6.1875 2.5625s-4.4766-0.85547-6.1875-2.5625c-9.4922-9.4961-22.633-14.938-36.059-14.938h-10.254c-4.8359 0-8.75-3.9141-8.75-8.75s3.9141-8.75 8.75-8.75h10.254c18.031 0 35.684 7.3164 48.434 20.062 3.418 3.418 3.418 8.957 0 12.375zm0-52.5c-1.7109 1.707-3.9492 2.5625-6.1875 2.5625s-4.4766-0.85547-6.1875-2.5625c-9.4922-9.4961-22.633-14.938-36.059-14.938h-10.254c-4.8359 0-8.75-3.9141-8.75-8.75s3.9141-8.75 8.75-8.75h10.254c18.031 0 35.684 7.3164 48.434 20.062 3.418 3.418 3.418 8.957 0 12.375zm98.812 37.562h-10.254c-13.426 0-26.566 5.4414-36.059 14.938-1.7109 1.707-3.9492 2.5625-6.1875 2.5625s-4.4766-0.85547-6.1875-2.5625c-3.418-3.418-3.418-8.957 0-12.375 12.75-12.746 30.402-20.062 48.434-20.062h10.254c4.8359 0 8.75 3.9141 8.75 8.75s-3.9141 8.75-8.75 8.75zm0-52.5h-10.254c-13.426 0-26.566 5.4414-36.059 14.938-1.7109 1.707-3.9492 2.5625-6.1875 2.5625s-4.4766-0.85547-6.1875-2.5625c-3.418-3.418-3.418-8.957 0-12.375 12.75-12.746 30.402-20.062 48.434-20.062h10.254c4.8359 0 8.75 3.9141 8.75 8.75s-3.9141 8.75-8.75 8.75z" fill="#AEDCC0"/>
  <path d="m433.67 304.08-70.004-70.012c-7.0039-8.7539-20.32-8.7539-27.328 0l-70.004 70.012c-2.4805 3.1016-3.832 6.9531-3.832 10.922v210h52.5v-52.5c0-19.328 15.672-35 35-35s35 15.672 35 35v52.5h52.5v-210c0-3.9688-1.3516-7.8203-3.832-10.922zm-101.17 115.92h-35v-35h35zm-17.5-87.5c0-19.328 15.672-35 35-35s35 15.672 35 35-15.672 35-35 35-35-15.672-35-35zm87.5 87.5h-35v-35h35z" fill="#AEDCC0"/>
  <path d="m542.5 100.38v136.38c-5.5625-3.082-11.422-5.375-17.5-6.875v-139.42c6.3164 2.1211 12.227 5.4414 17.5 9.9141z" fill="#AEDCC0"/>
  <path d="m508.15 87.5h-0.64844v140c-12.141 0-24.172 3.2656-35 9.2656v-136.38c10.18-8.6367 22.875-13.031 35.648-12.883z" fill="#AEDCC0"/>
  <path d="m507.5 244.94v0.058594h0.64844c10.035 0.11719 20.047 2.8984 28.723 8.4453l-29.371 44.055-29.371-44.059c8.8633-5.6641 19.117-8.5 29.371-8.5z" fill="#AEDCC0"/>
  <path d="m472.5 79.266v-9.2656c0-19.328 15.672-35 35-35s35 15.672 35 35v9.2695c-21.656-12.004-48.34-12.004-70-0.003906z" fill="#AEDCC0"/>
 </g>
</svg>
