<svg width="133" height="133" viewBox="0 0 133 133" fill="none" xmlns="http://www.w3.org/2000/svg">
<path fill-rule="evenodd" clip-rule="evenodd" d="M47.335 0.00032534C21.2459 0.00032534 0 21.2487 0 47.3408C0 73.4331 21.2465 94.6812 47.335 94.6812C58.6781 94.6812 69.1019 90.6582 77.2691 83.9728L124.474 131.164H124.475C125.351 132.101 126.57 132.643 127.853 132.664C129.136 132.686 130.373 132.186 131.28 131.28C132.187 130.372 132.688 129.136 132.666 127.853C132.646 126.57 132.106 125.351 131.169 124.474L83.9719 77.2717C90.6602 69.107 94.6833 58.6832 94.6833 47.3405C94.6833 21.2481 73.4233 0 47.3347 0L47.335 0.00032534ZM47.335 9.45542C68.3075 9.45542 85.2155 26.3667 85.2155 47.3413C85.2155 68.316 68.3064 85.2083 47.335 85.2083C26.3626 85.2083 9.46809 68.316 9.46809 47.3413C9.46809 26.3667 26.3634 9.45542 47.335 9.45542Z" fill="#AEDCC0"/>
</svg>
