<svg width="168" height="102" viewBox="0 0 168 102" fill="none" xmlns="http://www.w3.org/2000/svg">
<path d="M83.5585 30.8368C93.6809 30.8368 101.919 39.2091 101.919 49.4851C101.919 59.7741 93.6822 68.1388 83.5585 68.1388C73.4335 68.1388 65.2032 59.7741 65.2032 49.4851C65.2045 39.2091 73.4335 30.8368 83.5585 30.8368ZM83.5585 20.8068C67.9062 20.8068 55.1719 33.6714 55.1719 49.4838C55.1719 65.3014 67.9062 78.1674 83.5585 78.1674C99.2149 78.1674 111.949 65.3001 111.949 49.4838C111.949 33.6701 99.2149 20.8068 83.5585 20.8068Z" fill="#343E3D"/>
<path d="M84.0603 10.0301C88.805 10.0301 93.5836 10.547 98.2413 11.5614C112.092 14.5757 126.443 22.0927 140.891 33.8844C147.964 39.65 153.203 44.7034 157.374 49.7867L157.696 50.1383C157.782 50.2255 157.85 50.3661 157.885 50.5263L157.838 51.107C157.803 51.1969 157.756 51.275 157.696 51.3362L157.385 51.6799C155.826 53.5862 154.049 55.4156 152.39 57.1163C142.123 67.5473 131.235 75.8179 120.032 81.6943C111.611 86.089 103.881 88.896 96.3797 90.279C92.196 91.042 88.015 91.4274 83.8614 91.4274C79.0697 91.4274 74.317 90.9183 69.6387 89.8948C55.7847 86.8805 41.433 79.3688 26.9854 67.5745C19.928 61.8258 14.6977 56.7788 10.4984 51.6798C9.89421 50.9441 9.89421 50.5209 10.5036 49.7801C11.9424 48.0183 13.5439 46.3321 15.5049 44.3464C25.7379 33.9297 36.6232 25.6601 47.8552 19.7747C56.2876 15.3697 64.0153 12.5624 71.5062 11.1954C75.7056 10.4246 79.9256 10.03 84.0609 10.03M84.0609 3.30607e-05C79.3343 3.30607e-05 74.5049 0.446633 69.6963 1.32687C61.2249 2.87113 52.5569 5.99487 43.2106 10.8802C31.0516 17.2552 19.3266 26.1445 8.34725 37.3139C6.20661 39.4831 4.42391 41.3622 2.72991 43.4349C-0.912087 47.8475 -0.916087 53.6029 2.75465 58.0559C7.38732 63.6862 13.0737 69.1835 20.648 75.3502C36.3223 88.1459 52.088 96.3412 67.498 99.6952C72.8457 100.862 78.351 101.456 83.8533 101.456C88.5967 101.456 93.416 101.016 98.1763 100.146C106.683 98.5793 115.344 95.4504 124.666 90.5844C136.811 84.2134 148.534 75.3241 159.533 64.147C161.427 62.2134 163.251 60.3204 164.958 58.2524L165.056 58.1456C165.967 57.1638 166.68 56.0271 167.174 54.7589L167.71 53.3852L167.829 51.9165L167.876 51.3358L168 49.8423L167.678 48.3748C167.26 46.4725 166.358 44.7368 165.066 43.3385L164.956 43.2148C160.38 37.6798 154.741 32.2381 147.228 26.1108C131.541 13.3075 115.776 5.1108 100.371 1.7578C95.0014 0.592433 89.5144 0 84.0584 0L84.0609 3.30607e-05Z" fill="#343E3D"/>
</svg>
