<svg width="19" height="19" viewBox="0 0 19 19" fill="none" xmlns="http://www.w3.org/2000/svg">
<path d="M6.02624 18.6912C13.0265 18.6912 16.856 11.8163 16.856 5.86481C16.856 5.67242 16.856 5.47729 16.849 5.28491C17.5945 4.64522 18.238 3.85324 18.7492 2.94608C18.0528 3.31003 17.3148 3.5499 16.5592 3.6579C17.3551 3.094 17.9512 2.20674 18.2368 1.16105C17.489 1.68615 16.6705 2.05476 15.8172 2.25076C15.2435 1.52661 14.4843 1.04688 13.6573 0.88588C12.8303 0.724883 11.9816 0.891602 11.2427 1.36021C10.5037 1.82882 9.91572 2.57318 9.56981 3.47797C9.2239 4.38276 9.13937 5.3975 9.3293 6.365C7.81601 6.27506 6.33558 5.80911 4.98401 4.99736C3.63244 4.1856 2.43992 3.04618 1.48381 1.653C0.998422 2.64663 0.850293 3.82198 1.0695 4.94036C1.2887 6.05874 1.85881 7.03632 2.66405 7.67458C2.06064 7.65028 1.4705 7.45823 0.941219 7.11392V7.17576C0.942259 8.21666 1.24649 9.22521 1.80249 10.0309C2.35849 10.8367 3.13214 11.3901 3.99269 11.5978C3.66605 11.7045 3.32864 11.7576 2.98983 11.7558C2.75098 11.7567 2.51261 11.7305 2.27798 11.6775C2.5212 12.5735 2.99479 13.357 3.63241 13.9181C4.27004 14.4791 5.03976 14.7898 5.83378 14.8065C4.48491 16.0622 2.81871 16.7432 1.10353 16.7399C0.801306 16.7414 0.499292 16.7208 0.199219 16.6781C1.94004 17.9935 3.96174 18.692 6.02624 18.6912Z" fill="#AEDCC0"/>
</svg>
